<?xml version="1.0" encoding="UTF-8" standalone="no"?><!-- Generator: Gravit.io --><svg xmlns="http://www.w3.org/2000/svg" xmlns:xlink="http://www.w3.org/1999/xlink" style="isolation:isolate" viewBox="-752.879 -566.658 3826.561 350.158" width="3826.561pt" height="350.158pt"><defs><clipPath id="_clipPath_mFzrd9n273FKhAOx4kS7RgJJ25O2RWgc"><rect x="-752.879" y="-566.658" width="3826.561" height="350.158"/></clipPath></defs><g clip-path="url(#_clipPath_mFzrd9n273FKhAOx4kS7RgJJ25O2RWgc)"><g><path d=" M -728 -522.061 L -746.879 -275.606 L -746.879 -275.606" fill="none" vector-effect="non-scaling-stroke" stroke-width="4" stroke="rgb(0,0,0)" stroke-linejoin="miter" stroke-linecap="square" stroke-miterlimit="3"/></g><g><path d=" M -591.242 -526.954 L -531.242 -283.46 L -506.242 -433.209 L -429.242 -283.46 L -366.242 -548.868 L -266.242 -271.285 L -400.242 -406.424 L -400.242 -406.424" fill="none" vector-effect="non-scaling-stroke" stroke-width="4" stroke="rgb(0,0,0)" stroke-linejoin="miter" stroke-linecap="square" stroke-miterlimit="3"/><path d=" M -245.242 -261.545 Q -244.242 -290.765 -266.242 -539.128 Q -230.265 -471.885 -210.777 -435.46 Q -180.372 -378.631 -124.242 -273.72 L -133.242 -552.52 L 51.758 -552.52 L -58 -556 L -45.242 -284.677 L -45.242 -284.677" fill="none" vector-effect="non-scaling-stroke" stroke-width="4" stroke="rgb(0,0,0)" stroke-linejoin="miter" stroke-linecap="square" stroke-miterlimit="3"/></g><g><path d=" M 193.727 -530.584 Q 202.727 -530.584 424.727 -530.584 L 296.727 -539.636 L 296.727 -276 L 471.727 -521.533 C 463.513 -430.869 458.19 -349.013 455.727 -276 L 568.727 -276 L 595.727 -530.584 L 471.727 -521.533 L 471.727 -521.533" fill="none" vector-effect="non-scaling-stroke" stroke-width="4" stroke="rgb(0,0,0)" stroke-linejoin="miter" stroke-linecap="square" stroke-miterlimit="3"/></g><path d=" M 2356.303 -510.604 L 2138.303 -510.604 L 2262.303 -522.545 L 2228.303 -224 L 2228.303 -224" fill="none" vector-effect="non-scaling-stroke" stroke-width="5" stroke="rgb(0,0,0)" stroke-linejoin="miter" stroke-linecap="square" stroke-miterlimit="3"/><path d=" M 2505.333 -515.515 L 2475.333 -247.515 L 2475.333 -375.515 L 2633.333 -375.515 Q 2634.424 -527.758 2633.333 -527.515 Q 2631.314 -527.066 2615.333 -247.515" fill="none" vector-effect="non-scaling-stroke" stroke-width="5" stroke="rgb(0,0,0)" stroke-linejoin="miter" stroke-linecap="square" stroke-miterlimit="3"/><line x1="2399.394" y1="-520.606" x2="2383.394" y2="-240.606" vector-effect="non-scaling-stroke" stroke-width="5" stroke="rgb(0,0,0)" stroke-linejoin="miter" stroke-linecap="square" stroke-miterlimit="3"/><path d=" M 2712.182 -261.152 L 2732.182 -541.152 L 2874.182 -261.152 L 2874.182 -541.152 L 2874.182 -541.152 L 3066.182 -541.152 Q 2923.723 -553.876 2924.182 -559.152 Q 2924.303 -560.545 2912.182 -241.152 Q 3050.182 -237.152 3050.182 -261.152 Q 3050.182 -285.152 3050.182 -375.152 L 2998.182 -375.152" fill="none" vector-effect="non-scaling-stroke" stroke-width="5" stroke="rgb(0,0,0)" stroke-linejoin="miter" stroke-linecap="square" stroke-miterlimit="3"/><g><path d=" M 1096.209 -548.301 Q 1102.54 -542.281 1184.848 -377.354 L 1267.155 -548.301 Q 1167.662 -385.781 1171.28 -377.354 Q 1174.898 -368.927 1179.421 -230.485" fill="none" vector-effect="non-scaling-stroke" stroke-width="5" stroke="rgb(0,0,0)" stroke-linejoin="miter" stroke-linecap="square" stroke-miterlimit="3"/><path d=" M 946.129 -474.103 L 931.683 -523.059 L 798.457 -532.69 L 776.788 -490.154 L 950.142 -317.603 L 937.301 -257.41 L 798.457 -262.226 L 786.419 -289.513 L 938.103 -257.41 L 999.098 -525.467 L 1125.904 -236.544 L 963.785 -370.572" fill="none" vector-effect="non-scaling-stroke" stroke-width="5" stroke="rgb(0,0,0)" stroke-linejoin="miter" stroke-linecap="square" stroke-miterlimit="3"/></g><g><path d=" M 2110.861 -497.465 L 1977.052 -498.121 L 1971.652 -244.984 Q 2121.062 -243.016 2116.861 -244.984 C 2112.661 -246.951 1968.652 -246.295 1969.252 -255.476 Q 1969.852 -264.658 1966.851 -374.176 L 2109.061 -374.176" fill="none" vector-effect="non-scaling-stroke" stroke-width="5" stroke="rgb(0,0,0)" stroke-linejoin="miter" stroke-linecap="square" stroke-miterlimit="3"/></g><g><path d=" M 1926.668 -256.221 Q 1927.172 -277.633 1871.73 -506.674 Q 1849.049 -332.135 1851.569 -341.868 Q 1854.089 -351.601 1760 -544 L 1768.909 -241.298 L 1678.689 -240 L 1647.28 -534.783 L 1751.268 -519.651 L 1768.909 -241.947 L 1768.909 -241.947 L 1623.751 -241.947 L 1553.692 -240.649 L 1517.906 -278.282 L 1650.968 -250.381 L 1651.929 -250.277 L 1496.737 -466.446 L 1491.697 -510.567 L 1610.646 -537.818 L 1621.231 -495.643" fill="none" vector-effect="non-scaling-stroke" stroke-width="5" stroke="rgb(0,0,0)" stroke-linejoin="miter" stroke-linecap="square" stroke-miterlimit="3"/></g></g></svg>