<?xml version="1.0" encoding="utf-8"?>
<!-- Generator: Adobe Illustrator 23.0.6, SVG Export Plug-In . SVG Version: 6.00 Build 0)  -->
<svg version="1.1" id="Layer_1" xmlns="http://www.w3.org/2000/svg" xmlns:xlink="http://www.w3.org/1999/xlink" x="0px" y="0px"
	 width="1577.4px" height="340.4px" viewBox="0 0 1577.4 340.4" style="enable-background:new 0 0 1577.4 340.4;"
	 xml:space="preserve">
<style type="text/css">
	.st0{fill:none;stroke:#000000;stroke-width:5;stroke-linecap:square;stroke-miterlimit:3;}
</style>
<g>
	<g id="Layer_1-2">
		<path class="st0" d="M867.3,51h-218l124-11.9l-34,298.5l0,0"/>
		<path class="st0" d="M1016.4,46.1l-30,268v-128h158c0.7-101.5,0.7-152.2,0-152c-1.3,0.3-7.3,93.6-18,280"/>
		<line class="st0" x1="910.4" y1="41" x2="894.4" y2="321"/>
		<path class="st0" d="M1223.2,300.5l20-280l142,280v-280h192c-95-8.5-142.3-14.5-142-18c0.1-0.9-3.9,105.1-12,318
			c92,2.7,138-4,138-20v-114h-52"/>
		<path class="st0" d="M621.9,64.2l-133.8-0.7l-5.4,253.1c99.6,1.3,148,1.3,145.2,0c-4.2-2-148.2-1.3-147.6-10.5
			c0.4-6.1-0.4-45.7-2.4-118.7h142.2"/>
		<path class="st0" d="M437.7,305.4c0.3-14.3-18-97.8-54.9-250.4c-15.1,116.4-21.8,171.3-20.2,164.8S333.8,145.9,271,17.7l9,302.7
			l-90.2,1.3L158.3,26.9l104,15.1L280,319.7H134.8L64.7,321L29,283.4l133,27.9l1,0.1L7.8,95.2l-5-44.1l119-27.2L132.3,66"/>
	</g>
</g>
</svg>
