<?xml version="1.0" encoding="UTF-8"?>
<!-- Generator: Bez 1.0.2u (15139) - http://www.juicybitssoftware.com/bez -->
<svg width="1024.0" height="768.0" version="1.1" xmlns="http://www.w3.org/2000/svg" xmlns:xlink="http://www.w3.org/1999/xlink">
  <title>Untitled (1)</title>
  <desc>Created with Bez</desc>
  <path id="Path" fill="none" stroke="#000" stroke-width="1.0" d="M63.0,131.3 C63.0,131.3 66.3,131.3 72.2,131.3 C78.1,131.3 88.4,129.9 101.8,123.3 C115.1,116.7 128.7,107.9 140.7,97.2 C152.7,86.5 161.1,77.8 167.4,70.5 C173.8,63.2 177.1,59.3 178.5,57.6 C179.9,55.9 179.9,56.8 174.9,64.6 C170.0,72.4 163.9,83.6 158.5,97.0 C153.1,110.4 149.4,125.5 147.5,137.2 C145.6,148.8 145.6,156.6 148.0,161.0 C150.3,165.4 157.3,166.4 168.4,163.0 C179.4,159.5 192.1,147.4 201.9,133.0 C211.8,118.7 219.7,103.6 224.9,92.1 C230.1,80.7 232.9,74.4 234.1,70.7 C235.2,67.1 235.7,66.6 233.8,73.4 C231.9,80.2 229.1,93.3 227.3,105.5 C225.4,117.7 225.4,130.8 227.3,140.6 C229.1,150.3 233.8,154.7 241.6,155.6 C249.3,156.6 259.6,150.8 270.6,139.6 C281.7,128.4 291.1,114.8 298.1,102.4 C305.1,89.9 307.9,80.7 309.1,74.9 C310.3,69.0 310.3,64.6 310.1,62.4 C309.8,60.2 307.5,59.8 306.1,59.8 C304.7,59.8 304.2,61.7 304.2,67.3 C304.2,72.9 307.5,81.7 315.7,89.0 C323.9,96.3 333.3,98.7 347.1,99.2 C361.0,99.7 373.6,98.2 383.9,93.1 C394.3,88.0 401.3,82.2 405.1,76.8 C408.8,71.4 410.2,66.6 410.2,62.2 C410.2,57.8 409.3,54.9 404.4,53.2 C399.4,51.5 394.3,51.0 388.6,51.0 C383.0,51.0 377.4,53.9 372.5,58.1 C367.5,62.2 362.8,68.0 358.6,73.1 C354.4,78.3 351.1,83.6 348.3,89.2 C345.5,94.8 344.1,99.7 342.7,104.5 C341.3,109.4 340.3,113.8 340.1,118.7 C339.8,123.5 339.8,127.9 339.8,131.6 C339.8,135.2 339.8,138.6 339.8,141.5 C339.8,144.5 340.3,147.4 341.3,149.8 C342.2,152.2 344.1,154.7 345.9,156.4 C347.8,158.1 349.7,159.5 352.0,160.5 C354.4,161.5 356.7,162.0 359.8,162.5 C362.8,163.0 365.6,163.0 368.7,163.0 C371.7,163.0 375.5,163.0 379.3,162.7 C383.0,162.5 387.7,161.0 393.3,158.6 C399.0,156.1 405.5,152.7 412.6,149.3 C419.6,145.9 427.1,142.5 434.8,139.6 C442.6,136.7 451.5,134.2 461.1,131.1 C470.7,127.9 480.6,124.0 488.1,121.6 C495.6,119.1 500.8,118.2 505.0,117.2 C509.2,116.2 511.6,115.7 512.7,115.3 C513.9,114.8 514.4,114.8 514.8,114.8 C515.3,114.8 515.8,114.8 517.9,115.3 C520.0,115.7 520.0,115.7 520.0,115.7"/>
  <path id="Path-1" fill="none" stroke="#000" stroke-width="1.0" d="M63.0,289.6 C63.0,289.6 67.6,290.7 73.9,293.3 C80.3,295.8 86.6,297.5 93.7,297.5 C100.9,297.5 108.9,297.5 119.6,290.7 C130.2,283.9 141.1,275.3 152.6,267.9 C164.0,260.5 176.7,253.7 190.4,248.3 C204.2,242.9 219.7,240.1 232.9,239.5 C246.1,238.9 256.4,238.9 263.0,238.6 C269.6,238.3 272.5,238.3 272.8,238.1 C273.0,237.8 273.0,237.2 269.6,236.9 C266.2,236.6 258.1,236.6 245.5,238.1 C232.9,239.5 216.2,245.7 202.8,253.1 C189.3,260.5 176.7,267.9 166.0,277.3 C155.4,286.7 148.5,294.1 145.1,301.0 C141.7,307.8 141.1,316.3 142.5,322.9 C143.9,329.4 154.3,335.1 166.9,336.8 C179.5,338.5 191.6,338.5 204.8,336.0 C218.0,333.4 229.4,324.3 236.9,316.0 C244.4,307.8 250.7,298.1 255.0,289.9 C259.3,281.6 261.6,275.9 263.0,271.6 C264.4,267.4 265.6,264.5 266.7,263.1 C267.9,261.7 268.5,261.1 267.0,262.5 C265.6,264.0 259.8,273.6 255.5,286.2 C251.2,298.7 249.5,312.3 249.5,321.4 C249.5,330.5 253.0,334.5 264.4,335.4 C275.9,336.2 294.8,327.1 313.2,315.2 C331.6,303.2 347.6,291.8 360.0,281.9 C372.3,271.9 378.0,267.4 380.3,265.1 C382.6,262.8 382.6,262.3 379.2,264.5 C375.7,266.8 368.3,278.2 363.1,288.4 C358.0,298.7 355.7,304.9 353.9,310.3 C352.2,315.8 351.6,318.6 352.2,315.2 C352.8,311.8 359.7,301.0 367.4,289.3 C375.2,277.6 380.3,270.8 386.4,264.5 C392.4,258.3 396.4,252.6 398.7,250.0 C401.0,247.5 401.6,246.9 403.3,246.9 C405.0,246.9 409.0,248.6 419.6,252.9 C430.3,257.1 445.7,261.1 460.4,262.8 C475.0,264.5 489.3,264.5 500.8,262.0 C512.3,259.4 518.6,254.9 521.5,250.9 C524.3,246.9 524.9,243.5 524.9,240.3 C524.9,237.2 524.9,234.4 521.8,232.4 C518.6,230.4 514.6,229.2 510.3,228.4 C506.0,227.5 501.4,227.0 494.8,227.0 C488.2,227.0 474.4,230.4 465.0,235.8 C455.5,241.2 449.8,246.3 444.9,251.2 C440.0,256.0 437.1,262.3 435.7,269.9 C434.3,277.6 434.3,286.7 434.3,293.6 C434.3,300.4 434.8,306.6 438.0,311.8 C441.2,316.9 445.7,320.3 451.5,322.3 C457.2,324.3 464.7,325.4 472.7,325.4 C480.7,325.4 488.8,325.4 498.0,321.4 C507.1,317.5 514.6,314.0 524.1,310.3 C533.5,306.6 544.4,302.7 553.6,299.5 C562.8,296.4 570.8,293.6 577.1,291.8 C583.4,290.1 590.3,289.0 596.4,288.1 C602.4,287.3 607.0,286.7 609.3,286.7 C611.6,286.7 612.1,286.7 612.7,286.7 C613.3,286.7 615.0,286.7 615.0,286.7"/>
  <path id="Path-2" fill="none" stroke="#000" stroke-width="1.0" d="M-9.0,533.5 C-9.0,533.5 6.7,527.3 27.6,511.9 C48.5,496.5 71.3,475.5 85.4,459.2 C99.5,442.8 110.4,426.2 115.0,416.3 C119.6,406.4 120.1,399.7 118.8,398.4 C117.4,397.2 108.7,399.7 102.0,410.1 C95.2,420.6 91.9,433.0 91.6,443.4 C91.4,453.9 96.8,467.5 104.1,481.4 C111.4,495.3 114.7,513.1 114.2,534.4 C113.6,555.7 106.0,570.5 94.9,582.5 C83.8,594.6 71.8,601.3 63.4,603.2 C55.0,605.0 51.2,605.0 53.1,588.4 C55.0,571.7 72.4,544.6 93.3,521.8 C114.2,499.0 136.9,474.3 154.0,455.2 C171.1,436.0 184.2,421.9 190.1,415.7 C196.1,409.5 198.8,408.3 199.3,413.8 C199.9,419.4 197.7,451.5 190.7,485.7 C183.6,519.9 175.5,544.6 170.3,558.2 C165.2,571.7 162.4,576.1 160.8,576.7 C159.2,577.3 159.2,566.2 159.2,551.4 C159.2,536.6 163.0,522.4 171.4,511.3 C179.8,500.2 192.8,493.4 213.7,486.3 C234.6,479.2 251.4,474.9 263.1,473.4 C274.8,471.8 281.3,471.8 282.9,473.4 C284.5,474.9 280.7,482.9 268.2,493.1 C255.8,503.3 243.8,516.2 238.1,523.9 C232.4,531.6 222.6,523.6 234.9,536.0 C259.6,560.7 250.3,521.2 259.8,507.0 C269.3,492.8 274.8,483.5 277.5,479.5 C280.2,475.5 280.7,475.5 278.6,490.0 C276.4,504.5 270.4,526.7 269.1,541.5 C267.7,556.3 267.7,566.8 279.1,568.3 C290.5,569.9 313.8,547.7 332.0,525.5 C350.2,503.3 362.7,490.3 368.9,484.8 C375.1,479.2 376.8,479.2 376.8,489.7 C376.8,500.2 372.4,518.7 368.1,531.3 C363.7,544.0 360.5,552.0 358.3,555.4 C356.1,558.8 355.1,558.8 355.3,548.6 C355.6,538.4 362.7,523.0 378.9,508.2 C395.2,493.4 415.3,484.2 428.6,481.4 C441.9,478.6 450.5,478.6 456.0,479.2 C461.4,479.8 463.6,482.9 463.8,483.8 C464.1,484.8 464.1,485.4 460.6,486.9 C457.1,488.5 448.4,494.0 440.8,507.9 C433.2,521.8 429.4,532.9 428.8,541.2 C428.3,549.5 429.9,554.5 448.6,544.9 C467.4,535.3 486.4,505.7 501.3,474.6 C516.2,443.4 525.4,420.0 529.2,407.1 C533.0,394.1 533.6,389.8 533.3,389.2 C533.0,388.5 524.3,400.9 515.4,425.2 C506.4,449.6 498.8,478.0 495.6,499.0 C492.3,519.9 492.3,534.7 494.0,545.5 C495.6,556.3 503.2,558.8 521.4,545.2 C539.5,531.6 557.4,508.2 569.4,489.7 C581.3,471.2 585.6,463.2 586.5,461.6 C587.3,460.1 577.5,478.0 571.5,490.6 C565.6,503.3 563.9,513.8 565.6,519.9 C567.2,526.1 582.4,526.1 597.6,514.7 C612.8,503.3 620.9,496.5 623.9,495.3 C626.9,494.0 620.4,512.5 618.7,523.6 C617.1,534.7 617.7,543.4 632.6,545.8 C647.5,548.3 677.3,539.7 703.1,518.7 C728.9,497.7 747.3,471.8 755.5,453.3 C763.6,434.8 764.1,423.7 761.4,418.8 C758.7,413.8 743.0,413.8 734.0,423.4 C725.1,433.0 724.0,444.7 728.6,464.1 C733.2,483.5 739.7,499.0 742.2,517.8 C744.6,536.6 740.3,560.6 731.9,571.4 C723.5,582.2 719.7,585.3 722.4,567.1 C725.1,548.9 740.8,513.8 759.8,481.7 C778.8,449.6 795.6,422.5 808.4,404.9 C821.1,387.3 828.7,380.5 832.2,379.3 C835.8,378.1 836.3,394.1 834.7,423.7 C833.0,453.3 824.4,488.5 813.2,516.5 C802.1,544.6 790.7,563.7 783.4,568.7 C776.1,573.6 771.7,573.6 771.5,557.9 C771.2,542.1 778.3,527.9 794.5,514.7 C810.8,501.4 832.5,492.2 850.1,485.4 C867.8,478.6 878.6,475.5 882.4,474.3 C886.2,473.0 886.8,473.0 885.1,474.3"/>
</svg>
