<?xml version="1.0" encoding="utf-8"?>
<!-- Generator: Adobe Illustrator 23.0.6, SVG Export Plug-In . SVG Version: 6.00 Build 0)  -->
<svg version="1.1" id="Layer_1" xmlns="http://www.w3.org/2000/svg" xmlns:xlink="http://www.w3.org/1999/xlink" x="0px" y="0px"
	 width="3857px" height="340px" viewBox="0 0 3857 340" style="enable-background:new 0 0 3857 340;" xml:space="preserve">
<style type="text/css">
	.st0{fill:none;stroke:#000000;stroke-linecap:square;stroke-miterlimit:3;}
</style>
<line vector-effect="non-scaling-stroke" class="st0" x1="32.5" y1="6.5" x2="0.5" y2="334.5"/>
<path vector-effect="non-scaling-stroke" class="st0" d="M169.5,13.5l56,313l49-211l47,215l77.8-316.9l86.2,312.9l-129-143l8.8-27.4
	"/>
<path vector-effect="non-scaling-stroke" class="st0" d="M517.5,330.5c2.7-2.7-3.4-105-18.2-307.1l162.2,302.1L632.3,10h185
	L707.5,6.5l10,328"/>
<path vector-effect="non-scaling-stroke" class="st0" d="M959.5,18.5c6,0,85,0.7,237,2l-134.3,2.4l7.3,295.6L1237.3,41
	c-8.2,90.7-21.3,208.5-23.7,281.5h128l19.7-290.6l-124,9.1l0,0"/>
<path vector-effect="non-scaling-stroke" class="st0" d="M3133.8,25.5h-244.3l139-13c-5.7,58.3-18.4,167-38.1,326l0,0"/>
<path vector-effect="non-scaling-stroke" class="st0" d="M3192.5,20.5l-3.2,50.3l-26.8,253.7l-0.7-137.5h147
	c4.5-113.8,6.4-170.6,5.7-170.5c-1.3,0.3-5.3,105-12,314"/>
<line vector-effect="non-scaling-stroke" class="st0" x1="3392.5" y1="12.5" x2="3382.5" y2="316.5"/>
<path vector-effect="non-scaling-stroke" class="st0" d="M3463.5,328.5l10-318l11,28.5l123,289.5l1.2-306.6l0,0h226.8
	C3742.9,13.1,3696.8,7,3697,3.3c0.1-1,2.9,108.8,8.5,329.2c100,1.8,150,1.8,150-0.1c0-2.7-9.3-50.7-27.8-143.9l-62.2,4.1"/>
<path vector-effect="non-scaling-stroke" class="st0" d="M2709.5,338.5c0.1-5.6,2-2-10.1-68.8c-8.5-48-25.2-133-49.9-255.2
	c-22.5,140.8-33.3,209.5-32.4,206.1c1.7-6.5-28.8-73.9-91.6-202.1l8,302c-68.7,8-103.7,12.7-105,14c2,0-15.6-332.6-16-333l115,17
	l6.9,302.1l0,0l-294.9,13.9l-32-60l179,60l-171-276l34-44l96-10l22,48"/>
<path vector-effect="non-scaling-stroke" class="st0" d="M2865.5,16.5l-142,4l30,308l160-14c-118.7-2.7-178.7-4-180-4
	c0,0-4-54-12-162l140,2l0,0"/>
<path vector-effect="non-scaling-stroke" class="st0" d="M1861.8,14.2c4.2,4,27.8,66.8,70.8,188.3l100.2-188.3l-139.2,312.3"/>
<path vector-effect="non-scaling-stroke" class="st0" d="M1711.7,88.4l-26.1-77.9l-136-8l-7.2,69.8l173.4,172.6l-18.1,73.6l-156,4
	l-16-64l176,60L1764.6,37L1891.5,326l-162.1-134"/>
</svg>
