<?xml version="1.0" encoding="utf-8"?>
<!-- Generator: Adobe Illustrator 23.0.6, SVG Export Plug-In . SVG Version: 6.00 Build 0)  -->
<svg version="1.1" id="Layer_1" xmlns="http://www.w3.org/2000/svg" xmlns:xlink="http://www.w3.org/1999/xlink" x="0px" y="0px"
	 width="1649.5px" height="338.3px" viewBox="0 0 1649.5 338.3" style="enable-background:new 0 0 1649.5 338.3;"
	 xml:space="preserve">
<style type="text/css">
	.st0{fill:none;stroke:#000000;stroke-linecap:square;stroke-miterlimit:3;}
</style>
<g>
	<g id="Layer_1-2">
		<path class="st0" d="M927.3,24.7H683l139-13c-5.7,58.3-18.4,167-38.1,326l0,0"/>
		<path class="st0" d="M986,19.7L982.8,70L956,323.7l-0.7-137.5h147c4.5-113.8,6.4-170.7,5.7-170.5c-1.3,0.3-5.3,105-12,314"/>
		<line class="st0" x1="1186" y1="11.7" x2="1176" y2="315.7"/>
		<path class="st0" d="M1257,327.7l10-318l11,28.5l123,289.5l1.2-306.6H1629c-92.6-8.7-138.7-14.9-138.5-18.5
			c0.1-1,2.9,108.8,8.5,329.1c100,1.9,150,1.8,150-0.1c0-2.7-9.3-50.7-27.8-143.9l-62.2,4.1"/>
		<path class="st0" d="M503,337.7c0.1-5.6,2-2-10.1-68.8c-8.5-47.9-25.2-133-49.9-255.2c-22.5,140.8-33.3,209.5-32.4,206.1
			c1.7-6.5-28.9-73.9-91.6-202.1l8,302c-68.7,8-103.7,12.7-105,14c2,0-15.6-332.6-16-333l115,17l6.9,302l0,0L33,333.7l-32-60l179,60
			L9,57.7l34-44l96-10l22,48"/>
		<path class="st0" d="M659,15.7l-142,4l30,308l160-14c-118.7-2.7-178.7-4-180-4l-12-162l140,2l0,0"/>
	</g>
</g>
</svg>
