<?xml version="1.0" encoding="utf-8"?>
<!-- Generator: Adobe Illustrator 23.0.6, SVG Export Plug-In . SVG Version: 6.00 Build 0)  -->
<svg version="1.1" id="Layer_1" xmlns="http://www.w3.org/2000/svg" xmlns:xlink="http://www.w3.org/1999/xlink" x="0px" y="0px"
	 width="4709px" height="1718px" viewBox="0 0 4709 1718" style="enable-background:new 0 0 4709 1718;" xml:space="preserve">
<style type="text/css">
	.st0{fill:none;stroke:#000000;stroke-width:3;stroke-linecap:square;stroke-miterlimit:3;}
</style>
<path vector-effect="non-scaling-stroke" class="st0" d="M271.4,357.9v16.7c0.3,2.3,1.4,4.4,1.7,6.7c0.3,2.8,0,5.6,0,8.4
	c0,20.5,0.8,36.8,3.3,46.9c3.6,14.6,3.3,28.5,3.3,36.8c0,23.1,1.7,38.8,1.7,55.3c0,21.8-1.7,38.5-1.7,55.3c0,11-1.7,20.2-1.7,28.5
	c0,4.3-1.2,15.5,1.7,18.4c16.9,17,48,2.4,55.9-13.4c12.5-25.1,21.3-43.5,23.4-60.3c3.4-27.6,3.2-46.1,1.7-60.3
	c-3.2-28.7-2.8-43.4-5-56.9c-3.2-19.3-10-33-10-41.9c0-6.8-1.4-8.3-1.7-10v-8.4c-1.3-3.9-1.7-7-1.7-11.7c0-16,0-10.2,0,3.3
	c0,35.1-3.3,56.8-3.3,78.7c0,24.5-1.7,36.1-1.7,46.9c0,22.3,0,41.3,0,60.3c0,28.4-2.7,50.9,13.3,67c16,16.1,41.5,8.7,49.2-6.7
	c12.5-25,16.7-40.5,20-56.9c4-20.1,3.3-31.7,3.3-43.5c0-26.8-6.1-44.7-11.7-58.6c-6.3-15.8-11.7-32.3-11.7-40.2
	c0-25.2-1.2-42,3.3-60.3l1.7-6.7c0,16.2,26.1,21.8,36.7,21.8c21.2,0,36.1,3,45,0c23.3-7.8,39.8-20.1,61.7-20.1
	c16,0,35.1,26.1,40,38.5c9.5,23.9,1.7,161.1,1.7,179.2c0,7.8,0,26.8,0,33.5c0,3.1,1-11.1,1.7-13.4c2.2-7.7,0.6-136.2-0.8-139
	c-5.2-10.5-33.6-6.7-42.5-6.7c-1.7,0-8.3,1.7-8.3,1.7c-16.2,4.1-30.7,22.5-41.7,33.5c-17.6,17.7-24.4,44.9-30,62
	c-6,18.1-5,32.5-5,46.9c0,5,14.2,18.4,20,18.4c7.5,0,15.2,5,23.4,5c4.4,0,42.3-1.7,46.7-1.7c0,0,26.7-13.4,29.2-34.3l2.5-0.8
	c0-4.6,7-3,3.3-6.7"/>
<path vector-effect="non-scaling-stroke" class="st0" d="M650.1,344.5c0-49.7-4,99.4-6.7,149.1c-0.4,8.5-1.7,16.5-1.7,25.1
	c0,14.3-1.7,21.1-1.7,28.5c0,36.8,0,55.3,0,55.3c0-8.9,0-17.9,0-26.8c0-5,0-10,0-15.1c0-15.1,0-25.1,0-35.2
	c0-10.2-1.5-24.1,1.7-33.5c4.1-12.4-0.2-24.8,3.3-31.8c1.4-2.9,2.5-6.6,3.3-10c1.5-6,1.8-12.4,3.3-18.4c1.9-7.7,1.7-0.4,1.7-5
	c0-19.8,20.5-34.9,33.4-43.5c1.7-1.1,3.3-2.2,5-3.4c18.6-12.4,32.5-25.1,48.4-25.1c30.5,0,35,28,35,50.2c0,8.9,0,11.2,0,13.4
	c0,9.2,3.9,28.9,0,36.8c-1.7,3.3-1.7,11.7-1.7,11.7c0,15.3-3.3,31.7-3.3,46.9c0,2.8,0,5.6,0,8.4c0,19.1-3.3,33.7-3.3,48.6
	c0,8.5,10.8,17.1,16.7,20.1"/>
<path vector-effect="non-scaling-stroke" class="st0" d="M785.2,590.7c7.3,0.5,13.7,0.8,21.7,0.8c6.1,0,11.4,0,16.7,0
	c7.2,0,13.6,0,20,0c6.1,0,11.4,0,16.7,0c4.3,0,11-0.8,15.8-0.8c6.1,0,15-0.3,15-7.5c0-14.6,3.3-29.6,3.3-43.5
	c0-15.5-1.7-28.4-1.7-41c0-10.6,0-19.5,0-28.5c0-16.4-2.5-32-2.5-46.9c0-14.4-1.7-25.6-1.7-36.8c0-8.4,0-15.9,0-23.4
	c0-4.3-0.8-7.1-0.8-9.2c0-6.2-1.5-2.3-4.2-5c-2.3-2.3-12,0-14.2,0c-5.2,0-10.5,3.3-15.8,3.3c-8.5,0-16.3,1.7-23.4,1.7
	c-5.2,0-18.3,1.7-20-1.7c-2.3-4.7-12.8-16.7-0.8-16.7c8,0,16.7-1.7,25-1.7c22.1,0,39.5,0.8,56.7,0.8c14.5,0,26.4,0,38.4,0
	c12.3,0,22.9-0.8,33.4-0.8c7.9,0,13.9-0.8,20.9-0.8c3.4,0,15,5.3,15,8.4c0,7.3-6.4,10-13.3,10c-12.2,0-22,0-31.7,0
	c-6.6,0-12.4,0.8-18.4,0.8c-6.1,0-11.1-0.8-16.7-0.8c-9.7,0-6,6-10,10.1c-3.2,3.2,0,18.2,0,20.9c0,8.4,0.8,17,0.8,25.1
	c0,18.8,1.7,36.5,1.7,53.6c0,15.1-4.2,36,0,48.6c3.4,10.3,0.8,23.5,0.8,31.8"/>
<path vector-effect="non-scaling-stroke" class="st0" d="M1310.4,321.7c5.4,2.9-54.7,8-60.1,5c0,5-115.9-3.4-115.9,1.7
	c2.6,28.8,114.3,4.6,114.3,15.1c0,20.2-11.7,98.6-11.7,113.9c0,1.7-3,16-2.5,17.6c5.1,15.4,0.8,9,0.8,20.1c0,28.4-1.7,96.9-1.7,99.7
	l-15,0.8c1.5,0-3.2-168.3,5-168.3c2.8,0,7.2-1.7,10-1.7c25.1,0,44.5,0,65.1,0c25.6,0,48.7-3.4,68.4-3.4c15.9,0,31.9-1.7,45-1.7
	c6.3,0,10.3-2.4,11.7-3.3c11.8-7.9,21.7-15.3,21.7-30.1c0-14.1,4.3-30.9-5-40.2c-3.8-3.8-3.7,1-6.7-5c-6.2-12.5-21.6-21.8-33.4-21.8
	c-14.4,0-40-5.1-48.4,3.3c-2.3,2.3-8,6.4-8.3,6.7c-8.6,8.6-26.7,30-26.7,43.5c0,3.4-3.3,10-3.3,10c-3.8,15.4-5,33.6-10,48.6
	c-5,15.2-3.2,29.5-5,40.2c-3.8,23.1-1.7,38.6-1.7,51.9c0,7.8,0,10.6,0,13.4c0,11.7,1.1,29.6,10,38.5c0.9,0.9,2.8,0.6,3.3,1.7
	c6.3,12.7,30.5,15.1,38.4,15.1c2.2,0,4.4,0,6.7,0c26.4,0,43.3-20,51.7-36.8c9.9-19.9,20-40.7,20-58.6c0-21.3,6.7-39.6,6.7-56.9
	c0-13.3,6.7-26.7,6.7-38.5c0-3.9,0-6.1,0-8.4"/>
<path vector-effect="non-scaling-stroke" class="st0" d="M2745.5,393.5v-10c0-14.3-8-26.9-8-38c0-7.7-8.3-20.3-12-22
	c-32.7-14.9-154.8,2-164,2c-6.7,0-14,2-18,4c-9.4,4.7-8,8-14,14c-5.7,5.7-10,78-10,78c2,0,4,10,4,10c0.8,0.8,3.8,4.9,6,6
	c2.7,1.4,5.1,4.5,8,6l8,6c11.6,0,164.3,0,180,0c18.2,0,28,1.3,28,18c0,2.7,4,97.3,4,112c0,14.4-14.7,24-28,24c-26.7,0-49.3,0-72,0
	c-18.7,0-35.3,0-52,0c-18.7,0-33.1,2-50,2c-10.9,0-22.5,1.8-30-2c-0.7-0.4-10,0.3-10,0c0-2-4-8-4-8c0-0.7,0-1.3,0-2
	c0-16.1,195.4-18,212-18c29.9,0,49.6-2,72-2c22,0,35.4-2,48-2c23.3,0,36.7,0,50,0c31.6,0,65.6-2,91-2c12.3,0,75,11,107-42
	c13-19.5,2.7-147.3-12-162c-7-29-8.8-43.6-31-51c-29.3-9.8-28.6-6-53-6c-20.7,0-46.3-1-59-1s-75.3,2-78,2c-27,2-3,97.9-3,124
	c0,21.8,8,42.4,8,60c0,16,0,30,0,44c0,16.7-2,53,8,59c11.2-17.5,218.2,26,294-11c0,0,16.5-288,18-291c1.5-3,11.1-10,14-10
	c1.1,0,17.5-6.5,20-4c0.2,0.2,15.2,3,17,3c9.5,0,10.2,4.2,12,6c2.7,2.7,3.5,3.1,6,8c1.4,2.8,2.5,14.5,4,16c3.3,3.3,4,20,4,22
	c0,3.3,0,6.7,0,10s0,6.7,0,10c0,5.3,0,8.7,0,12c0,2.7,0,5.3,0,8v14l2-12c0-26.4,2.1-50.7,6-70c0.3-1.5,1.3-2.7,2-4
	c6.7-13.3,3.6-14.8,14-20c5.1-2.5,18.4,0,24,0c17.6,0,22,17.4,22,32c0,26,4,48.5,4,72c0,29.6-2,51-2,72c0,19.2-4,35.5-4,52
	c0,11-2,27.8-2,40c0,5.3,0,8.7,0,12c0,15,8.4,12,22,12c30.6,0,55.9-2,80-2c27.9,0,49.5-4,72-4c19.3,0,30.7,0,42,0
	c7.5,0,21.7,3.2,28,0c2.6-1.3,6-6.6,6-8c0-7.5,3-10-6-10c-9.3,0-18.7,0-28,0c-19.3,0-34.7,0-50,0c-17.8,0-32.2-2-48-2
	c-15.7,0-40-14.7-40-28c0-5.6-2-5.6-2-10c0-11.8-2-26.9-2-40c0-13.8-8.5-33.5-2-40c3.8-3.8,26.9-3.7,30-4c3.3-0.4,6.7,0,10,0
	c2,0,4,0,6,0c2.7,0,5.3,0,8,0c3.3,0,6.7,0,10,0c26.8,0,49.2,0,70,0c13.1,0,39.9,0.1,44-4c4.6-4.6-2.7-16-6-16c-3.7,0-8.2-3.4-10-4
	c-7.3-2.4-16.1-2-24-4c-2.3-0.6-7.6,0-10,0c-3.3,0-6.7,0-10,0c-12.9,0-22.5,2-34,2c-2.4,0-7.9-1.1-10,0c-6.1,3-11.7,2-14,2
	c-15,0-23.4,0-38,0c-6.5,0-7.5-2-10-2c-3.8,0-8-10-12-12l-6-8c-2.1,0-9.3-16.5-10-18c-2.1-4.1-2-2.5-2-8c0-3.1-2-4.9-2-8
	c0-2.2-1.4-12.6,0-14c2-2,4-10,4-10c3.5-7.1,5.4-9.9,14-12c7.5-1.9,11.9-6,20-6c27.5,0,53.2-2,78-2c27.9,0,87-2,87-2
	c16.7,0,31.3,0,46,0c20.7,0,39.3,0,58,0c13.7,0,27.7-2,42-2c23.2,0,45.9-4,66-4c19.4,0,10.9-2,29-2c16.7,0,34,0.2,34,16
	c0,14-24.6,14-36,14c-21.2,0-14.2,0-31,0c-16.1,0-28.6-4-42-4c-17.3,0-32.7,0-48,0c-5.3,0-8.7,0-12,0s-6.7,0-10,0
	c-3.8,0-16,2.1-16,6c0,2-4,10-4,10c0,8,0,16,0,24c0,3.3,0,6.7,0,10c0,28.4-2,52.1-2,76c0,18.8-2,35-2,52c0,15.7-2,29.4-2,44
	c0,5.3,0,8.7,0,12s0,6.7,0,10c0,14.4-1.8,9.2,12,0"/>
<path vector-effect="non-scaling-stroke" class="st0" d="M3878.5,293.5c0.2,13.6,2,26.3,2,40c0,19.3,0,34.7,0,50
	c0,35.3,0.7,50.7,0,66c-2.5,58.6-2,71.4-2,84c0,11.1,0.1,25,6,28c2.2,1.1,4.4,8,6,8c24.1,0,24-26.4,24-44c0-25,2-47.4,2-70
	c0-7.1-1.3-15.4,0-18c1.6-3.1,5.3-24.7,2-28c-10.3-10.3,21.9-11.5,24-12c2.9-0.7,7,0,10,0c4.9,0,4.4,2.4,8,6c3.9,3.9,6,7.4,6,10
	c0,2.4-0.6,7.7,0,10c2.9,11.6,2.3,24.8,6,36c0.9,2.6,0,7.2,0,10c0,19-4,35-4,52c0,4.7,0,7.3,0,10c0,24.2-3.7,15.4,10,20
	c34.3,11.4,40-17.5,40-40c0-22.4-2.1-49.6,2-66c6.1-24.5,4-48.6,4-66c0-25.8-2-45.3-2-64c0-14.7-4-29.2-4-40c0-1.6,1-9,0-10
	c-1-1-8.6,0-10,0c-9.3,0-12.7,0-16,0c-18.5,0-12,13.7-12,28c0,22.4,6,44.9,6,66c0,5.1-6.4,4-8,4c-11.3,0-22.7,0-34,0
	c-18.8,0,20-9.7,22-10l28-4l34-4"/>
<path vector-effect="non-scaling-stroke" class="st0" d="M4164.5,272.5c-0.8,24.1,1,48,1,72c0,17.5,1.3,30.3,1,43
	c-1.5,58.6-5,77.7-5,96c0,24.6-4,37.2-4,50c0,3-3.2,21,1,21c12.2,0,7.8-1.5,13-12c5.6-11.2,3-31.9,3-42c0-18.2,2-33.8,2-49
	c0-15.6,2-29.3,2-43c0-17,2-31,2-45c0-15.8,3-31.3,3-45c0-4.6-1.1-21.9,1-24c2.6-2.6-0.4-22,2-22c1.3,0,15-2,15,4c0,4.9,8,11.9,8,19
	c0,18.2,10.4,40.3,16,57c6.4,19.1,16,42.3,16,59c0,16.7,12,30.7,12,46c0,4,1.6,7.3,2,9c2.5,9.8,0.5,25,5,34c3.4,6.9,4,22.6,4,28
	c0,5.6,0.1,17,4,17c7.6,0,18,7.8,20-2c1.1-5.3,2-11.5,2-17c0-1.3,0-2.7,0-4c0-18.9,1-35.7,1-52c0-22.9-1-43.7-1-64
	c0-19.8-1-35.3-1-51c0-15,0-28,0-41c0-15.3-3-29.2-3-42c0-8.4-2.8-12.6,5-11"/>
<path vector-effect="non-scaling-stroke" class="st0" d="M4301.5,256.5c15.6-5.1,17.1,1.3,21,13c0,13.2,0.4,25.9-3,36
	c-7.5,22.5-9,50.3-9,71c0,18,2,33.5,2,49c0,23.2-1,44.8-1,66c0,13.4,0,23.9,0,32c0,5.3-2.1,23.3,0,17"/>
<path vector-effect="non-scaling-stroke" class="st0" d="M4338.5,547.5c3.4,4.6,6.7,6.9,13,9c7,0,14.5,3,21,3c9,0,15.9,1,24,1
	c8.7,0,16.3,0,24,0c10,0,19.3-1,28-1c9.6,0,19.7-3,26-3c10.8,0,16.7-3,25-3c7.2,0,22-7,25-13c5.9-11.7,17-16.7,17-29
	c0-8.1-0.8-27.4,2-33c4.1-8.2,0-20.6,0-27c0-5.6-2.7-16.7-6-20c-5.8-5.8-7.9-9-17-9c-8.1,0-15.4,0-22,0c-8.8,0-16,3-23,3
	c-8.6,0-16.4,4-24,4c-8.9,0-15.3,2-22,2c-3.7,0-15.7,5.3-10,11c4.4,4.4,25.7,3.7,31,1c6.9-3.5,23.8,0.2,27-3c3.3-3.3,18.6-2,22-2
	c2.2,0,7.6-0.4,9,1c6.5,6.5,8,15,8,24c0,11.7,0,21.3,0,31c0,10.7-0.7,14.7-7,21c-6.3,6.3-23.2,18-31,18c-12.4,0-24.2,2-36,2
	c-8.6,0-15.2,1-23,1c-7.3,0-13.7,0-20,0c-7.7,0-13.7,1-20,1c-8.1,0-11-8.1-11-16c0-10.8,0-27.4,0-36c0-13.5,4-26,4-38
	c0-12.2,1-22.7,1-34c0-11.4,2-20.4,2-30c0-8,2-14.8,2-22c0-8.7-1-16.2-1-25c0-8.3,0-15.7,0-23c0-10.2,2-18.7,2-27
	c0-10.5,4-18.5,4-26c0-8.5,16.5-14,22-14c13.7,0,26.3,0,39,0c11.6,0,21.6,1,31,1c14,0,73,5.9,73,8c21,21,15,41.4,15,49"/>
<path vector-effect="non-scaling-stroke" class="st0" d="M1718.5,613.2l-3.1-5.8c-3.6-7.7-8.3-16.9-10.8-24.9
	c-0.8-2.5-1.1-5.5-1.5-8.3c-0.4-2.3,0-5.1,0-7.5c0-2.8,0-5.5,0-8.3c0-8,0-15.2-0.8-20.8c-3.8-28.7-4.6-42.2-4.6-54
	c0-12.1,0.8-23,0.8-32.4c0-3.9,6.9-0.9,7.7,0c4.8,5.2,3.9,10.4,3.9,17.4c0,14.5,1.5,28.2,1.5,40.7c0,14.9,2.3,26.9,2.3,39.9
	c0,9.8,0.2,22.3,2.3,29.1c0.7,2.4-1,6.1,0,8.3c4.3,9.2,1,25.7,14.7,25.7c11.3,0,21.4-0.8,31.7-0.8c13,0,25.1-0.8,36.3-0.8
	c12,0,24-0.4,32.5-5c10.9-5.9,15.5-17.6,15.5-29.9c0-16.1,3.9-30.3,3.9-44c0-16.2,3.9-30.9,3.9-45.7c0-16.5-3.1-29.4-3.1-43.2
	c0-17.1-4.9-27.9-17.8-34.9c-16.3-8.7-38.6-5-54.9-5c-18.6,0-33-2.3-46.4,2.5c-15.4,5.5-30,4.4-43.3,9.1
	c-17.2,6.2-20.9-3.9-20.9-17.4c0-16.5,0.8-31.4,0.8-44.8c0-14.8,6.8-23.6,17-29.1c12.9-6.9,26-9.1,38.6-9.1c23,0,46.9-0.2,67.2,4.2
	c15.2,3.3,29.4,1.7,41,1.7c15.7,0,30.2,0.3,43.3-2.5c5.3-1.1,12.6-3.3,17.8-3.3c23.5,0,39.9-4.2,56.4-4.2c18.3,0,33.9-2.5,49.5-2.5
	c14.1,0,22.8-0.9,28.6,11.6c5.9,12.7,14.7,31.9,14.7,44.8c0,21.1,3.1,40.4,3.1,59.8c0,25.8,0.8,46.6,0.8,67.3
	c0,21.3,3.1,39.4,3.1,57.3c0,5.2,0.8,7.3,0.8,10c0,3,0.3,5.4,0.8,8.3c0.7,4.4-1.9,20.4,0.8,23.2c2.2,2.3,0.8,13.4,0.8,15.8
	c0,8.4,2.5,13.3-4.6,13.3c-3.5,0-4.6-14.1-4.6-15.8c0-2.8,0-5.5,0-8.3c0-2.9-0.8-5.3-0.8-8.3c0-8.1-0.8-13.4-0.8-19.1
	c0-3,0-20-1.5-21.6c-1-1.1-1.4-8.3-1.5-9.1c-1-6.6-0.5-13.1-1.5-19.9c-3.9-26.6-6.2-39.1-6.2-49.8c0-12.5-7-20.9-7-31.6
	c0-9.4-15.1-19.9-21.6-19.9c-13.2,0-26.3-2.5-38.6-2.5c-9.9,0-27,0.7-32.5,6.6c-8.8,9.5-16.8,11.9-22.4,24.1
	c-8.2,17.5-11.6,31.4-15.5,48.2c-3.8,16.3-5.4,31.4-5.4,44.8c0,16.1,0.8,29.8,0.8,42.3c0,13,11.9,21.6,21.6,21.6c12.9,0,22.8,5,34,5
	c12.9,0,23.7-0.7,33.2-5.8c7.9-4.2,19.6-6.9,24.7-12.5c5.7-6.1,15-9.5,20.9-15.8c3.9-4.2,9.3-9,9.3-9c13-6.9,29.3-18.6,39-29.1
	c8.2-8.9,12.5-19.3,18.5-25.7c6.6-7,4.3-21.2,9.3-26.6c4.9-5.3,5.4-25.1,5.4-31.5c0-16.4,5.4-31.7,5.4-46.5
	c0-15.4,4.6-26.7,4.6-38.2c0-12.5,0.8-23.7,0.8-34.9c0-2.5,0-19.9,0-19.9c0,9.7,0,19.4,0,29.1c0,23.4,3.8,48.5,0,68.9
	c-4.9,26.3-3.1,52.7-3.1,75.6c0,20.8,2.7,31.9,13.9,44c13.1,14,35.4,14.7,50.2,18.3c4.4,1.1,9.5,1.6,13.9,0
	c13.1-4.7,23.8-6.3,29.4-18.3c9-19.4,21.6-38.9,21.6-59.8c0-28.9-0.8-50.9-0.8-73.1c0-19.5,2.3-36.4,2.3-53.1
	c0-13.7-0.8-25.9-0.8-37.4c0-11,13.1-7.4,13.1,1.7c0,3,0.8,5.3,0.8,8.3c0,19.7,0.8,37.6,0.8,55.6c0,20.3,0.8,37,0.8,54
	c0,19.7-3.6,41.6,0,57.3c4.1,17.8,0.8,38.1,0.8,53.1c0,20.2,0.8,38.9,0.8,57.3c0,15.4,1.5,28.4,1.5,40.7c0,11-26.8,7.5-33.2,7.5
	c-20.8,0-28.6-1-36.3-0.8c-55.9,0.9-78.2,3.1-82.7-1.7c-12.2-13.1,10.6-17.4,17-17.4c10,0,18.1-0.8,25.5-0.8c5.7,0,19.3,2.9,24.7,0
	c4.2-2.3,14.4-1.7,17.8-1.7c31.1,0,43.2,1.4,51.8-1.7"/>
<path vector-effect="non-scaling-stroke" class="st0" d="M272.2,357.9c-2.3-4.2-6.8-4.2-13.3-4.2c-6.7,0-12.5,0-18.4,0
	c-7.1,0-13.8,2.5-20,2.5c-6,0-11.9,0.8-17.5,0.8c-5.8,0-11.3,0.8-16.7,0.8c-6.1,0-11.4,0-16.7,0"/>
<path vector-effect="non-scaling-stroke" class="st0" d="M32.9,408.2l1.7-21.8c0-8.5-0.5,2,1.7-6.7V373c0-13.4,1-22.7-1.7-26.8
	c-0.9-1.3-15-5.7-15-3.4c0,1.7-6.7,8.4-6.7,8.4c-1.6,1.6-2.8,4.5-3.3,6.7c-3.1,12.3-3.3,25.5-3.3,38.5c0,13.5-1.7,23.1-1.7,33.5
	c0,22.3,0,32.9,0,43.5c0,24,0,34.6,0,45.2c0,20.4,0,33.2,0,46.9c0,15.6,1.7,30.3,1.7,43.5c0,7.3,7.8,0.8,8.3,0
	c5.9-8.9,11.7-19.6,11.7-30.1c0-18.2,5-34.4,5-51.9c0-2.8,0-5.6,0-8.4c0-21.4,1.7-41.9,1.7-62c0-12.8,0-24,0-35.2v-1.7V408.2z"/>
<path vector-effect="non-scaling-stroke" class="st0" d="M648.4,334.4c0.1-11.4-18.4-6.4-18.4,3.3c0,12.4-3.3,28.8-3.3,41.9
	c0,17-1.7,32.5-1.7,46.9c0,17.1-1.7,34.5-1.7,48.6c0,14.5,0,27.4,0,40.2c0,14.7-1.7,26.3-1.7,38.5c0,13.2-3.4,41.9,1.7,46.9"/>
<path vector-effect="non-scaling-stroke" class="st0" d="M4090.5,537.5l-4-74c-0.1-2.7,0-5.3,0-8c6.5-26.1-3.9-48.4,2-66
	c2-6,2-16,2-16c0-14.3,2-27.6,2-42c0-16,3.3-27.7,4-38c2-30,2-52,2-52l2,20c0,11.6,4,21.7,4,32c0,9.1,2.5,19.2,4,28v10
	c0,23.7,2,44,2,64c0,27.3,0,50.7,0,74c0,22.3-6,40.4-6,58C4104.5,529.5,4102.5,533.5,4090.5,537.5z"/>
</svg>
