<?xml version="1.0" encoding="utf-8"?>
<!-- Generator: Adobe Illustrator 23.0.6, SVG Export Plug-In . SVG Version: 6.00 Build 0)  -->
<svg version="1.1" id="Layer_1" xmlns="http://www.w3.org/2000/svg" xmlns:xlink="http://www.w3.org/1999/xlink" x="0px" y="0px"
	 width="34.9px" height="273.4px" viewBox="0 0 34.9 273.4" style="enable-background:new 0 0 34.9 273.4;" xml:space="preserve">
<style type="text/css">
	.st0{fill:none;stroke:#000000;stroke-width:3;stroke-linecap:square;stroke-miterlimit:3;}
</style>
<g>
	<g id="Layer_1-2">
		<path class="st0" d="M29.9,67.5l1.7-21.8c0-8.5-0.5,2,1.7-6.7v-6.7c0-13.4,1-22.7-1.7-26.8c-0.9-1.3-15-5.7-15-3.3
			c0,1.7-6.7,8.4-6.7,8.4c-1.6,1.9-2.8,4.2-3.3,6.7C3.5,29.5,3.2,42.8,3.2,55.8c0,13.5-1.7,23.1-1.7,33.5v135.7
			c0,15.6,1.7,30.3,1.7,43.5c0,7.3,7.8,0.8,8.3,0c5.9-8.9,11.7-19.6,11.7-30.1c0-18.2,5-34.4,5-51.9V178c0-21.4,1.7-41.9,1.7-62
			V67.5z"/>
	</g>
</g>
</svg>
