<?xml version="1.0" encoding="utf-8"?>
<!-- Generator: Adobe Illustrator 23.0.6, SVG Export Plug-In . SVG Version: 6.00 Build 0)  -->
<svg version="1.1" id="Layer_1" xmlns="http://www.w3.org/2000/svg" xmlns:xlink="http://www.w3.org/1999/xlink" x="0px" y="0px"
	 width="596.2px" height="345.8px" viewBox="0 0 596.2 345.8" style="enable-background:new 0 0 596.2 345.8;" xml:space="preserve"
	>
<style type="text/css">
	.st0{fill:none;stroke:#000000;stroke-width:3;stroke-linecap:square;stroke-miterlimit:3;}
</style>
<g>
	<g id="Layer_1-2">
		<path class="st0" d="M51.7,317l-3.1-5.8c-3.6-7.7-8.3-16.9-10.8-24.9c-0.7-2.7-1.2-5.5-1.5-8.3c-0.4-2.3,0-5.1,0-7.5v-8.3
			c0-8,0-15.2-0.8-20.8c-3.8-28.7-4.6-42.2-4.6-54c0-12.1,0.8-23.1,0.8-32.4c0-3.9,6.9-0.9,7.7,0c4.8,5.2,3.9,10.4,3.9,17.4
			c0,14.5,1.5,28.2,1.5,40.7c0,14.9,2.3,26.9,2.3,39.9c0,9.8,0.2,22.3,2.3,29.1c0.7,2.4-1,6.1,0,8.3c4.3,9.2,1,25.7,14.7,25.7
			c11.3,0,21.4-0.8,31.7-0.8c13,0,25.1-0.8,36.3-0.8c12,0,24-0.4,32.5-5c10.9-5.9,15.5-17.6,15.5-29.9c0-16.1,3.9-30.3,3.9-44
			c0-16.2,3.9-30.9,3.9-45.7c0-16.5-3.1-29.4-3.1-43.2c0-17.1-4.9-27.9-17.8-34.9c-16.3-8.8-38.6-5-54.9-5c-18.6,0-33-2.3-46.4,2.5
			c-15.4,5.5-30,4.4-43.3,9.1c-17.2,6.2-20.9-3.8-20.9-17.4c0-16.5,0.8-31.5,0.8-44.8c0-14.8,6.8-23.6,17-29.1
			c12.9-6.9,26-9.1,38.7-9.1c23,0,46.9-0.2,67.2,4.1c15.2,3.3,29.4,1.7,41,1.7c15.7,0,30.2,0.3,43.3-2.5c5.3-1.1,12.6-3.3,17.8-3.3
			c23.5,0,39.9-4.1,56.4-4.1c18.3,0,33.9-2.5,49.5-2.5c14.1,0,22.8-0.9,28.6,11.6c5.9,12.7,14.7,31.9,14.7,44.8
			c0,21.1,3.1,40.4,3.1,59.8c0,25.8,0.8,46.6,0.8,67.2c0,21.3,3.1,39.4,3.1,57.3c0,5.2,0.8,7.3,0.8,10c0,2.8,0.3,5.6,0.8,8.3
			c0.7,4.4-1.9,20.4,0.8,23.2c2.2,2.4,0.8,13.4,0.8,15.8c0,8.4,2.5,13.3-4.6,13.3c-3.5,0-4.6-14.1-4.6-15.8v-8.3
			c0-2.9-0.8-5.2-0.8-8.3c0-8-0.8-13.4-0.8-19.1c0-3,0-19.9-1.5-21.6c-1-1.1-1.4-8.3-1.5-9.1c-1-6.6-0.5-13.1-1.5-19.9
			c-3.9-26.6-6.2-39.1-6.2-49.8c0-12.5-7-21-7-31.6c0-9.4-15.1-19.9-21.6-19.9c-13.2,0-26.2-2.5-38.6-2.5c-9.9,0-27,0.7-32.5,6.7
			c-8.8,9.5-16.8,11.9-22.4,24.1c-8.2,17.5-11.6,31.4-15.5,48.2c-3.5,14.7-5.3,29.7-5.4,44.8c0,16.1,0.8,29.8,0.8,42.3
			c0,13,11.9,21.6,21.6,21.6c12.9,0,22.8,5,34,5c12.9,0,23.7-0.7,33.2-5.8c7.9-4.2,19.6-6.9,24.7-12.5c5.7-6.1,15-9.5,20.9-15.8
			c4-4.2,9.3-9,9.3-9c13-6.9,29.3-18.6,39-29.1c8.2-8.9,12.5-19.2,18.5-25.7c6.6-7,4.3-21.2,9.3-26.6s5.4-25,5.4-31.6
			c0-16.4,5.4-31.7,5.4-46.5c0-15.4,4.6-26.7,4.6-38.2c0-12.5,0.8-23.8,0.8-34.9v9.1c0,23.4,3.8,48.5,0,68.9
			c-4.9,26.3-3.1,52.7-3.1,75.6c0,20.8,2.7,31.9,13.9,44c13.1,14.1,35.4,14.7,50.2,18.3c4.4,1.1,9.5,1.6,13.9,0
			c13-4.7,23.8-6.3,29.4-18.3c9-19.4,21.6-38.9,21.6-59.8c0-28.9-0.8-51-0.8-73.1c0-19.5,2.3-36.4,2.3-53.1
			c0-13.7-0.8-25.9-0.8-37.4c0-11,13.1-7.4,13.1,1.7c0,3,0.8,5.3,0.8,8.3c0,19.7,0.8,37.5,0.8,55.6c0,20.3,0.8,37,0.8,54
			c0,19.7-3.6,41.6,0,57.3c4.1,17.8,0.8,38.1,0.8,53.1c0,20.2,0.8,38.9,0.8,57.3c0,15.4,1.5,28.4,1.5,40.7c0,11-26.8,7.5-33.2,7.5
			c-20.8,0-28.6-1-36.3-0.8c-55.9,0.9-78.2,3.1-82.7-1.7c-12.2-13.1,10.6-17.4,17-17.4c10,0,18.1-0.8,25.5-0.8
			c5.7,0,19.4,2.9,24.7,0c4.3-2.3,14.4-1.7,17.8-1.7c31.1,0,43.2,1.4,51.8-1.7"/>
	</g>
</g>
</svg>
