<?xml version="1.0" encoding="utf-8"?>
<!-- Generator: Adobe Illustrator 23.0.6, SVG Export Plug-In . SVG Version: 6.00 Build 0)  -->
<svg version="1.1" id="Layer_1" xmlns="http://www.w3.org/2000/svg" xmlns:xlink="http://www.w3.org/1999/xlink" x="0px" y="0px"
	 width="2054.8px" height="366.1px" viewBox="0 0 2054.8 366.1" style="enable-background:new 0 0 2054.8 366.1;"
	 xml:space="preserve">
<style type="text/css">
	.st0{fill:none;stroke:#000000;stroke-width:3;stroke-linecap:square;stroke-miterlimit:3;}
</style>
<g>
	<g id="Layer_1-2">
		<path class="st0" d="M235.5,152.1v-10c0-14.3-8-26.9-8-38c0-7.7-8.3-20.3-12-22c-32.8-14.9-154.8,2-164,2c-6.2,0.1-12.3,1.4-18,4
			c-9.4,4.7-8,8-14,14c-5.7,5.7-10,78-10,78c2,0,4,10,4,10c0.8,0.8,3.8,4.9,6,6c2.8,1.4,5.1,4.6,8,6l8,6h180c18.2,0,28,1.3,28,18
			c0,2.7,4,97.3,4,112c0,14.4-14.7,24-28,24h-124c-18.7,0-33,2-50,2c-11,0-22.5,1.8-30-2c-0.7-0.4-10,0.3-10,0c0-2-4-8-4-8v-2
			c0-16.1,195.4-18,212-18c29.9,0,49.5-2,72-2c22,0,35.5-2,48-2h50c31.6,0,65.6-2,91-2c12.3,0,75,11,107-42
			c13-19.5,2.7-147.3-12-162c-7-29-8.8-43.6-31-51c-29.3-9.8-28.6-6-53-6c-20.7,0-46.3-1-59-1s-75.3,2-78,2c-27,2-3,97.9-3,124
			c0,21.8,8,42.4,8,60v44c0,16.7-2,53,8,59c11.2-17.5,218.2,26,294-11c0,0,16.5-288,18-291s11.1-10,14-10c1.1,0,17.5-6.5,20-4
			c0.2,0.2,15.2,3,17,3c9.5,0,10.2,4.2,12,6c2.7,2.7,3.5,3.1,6,8c1.4,2.8,2.5,14.5,4,16c3.3,3.3,4,20,4,22v54l2-12
			c0-26.4,2.2-50.8,6-70c0.3-1.5,1.3-2.7,2-4c6.7-13.3,3.6-14.8,14-20c5.1-2.5,18.4,0,24,0c17.6,0,22,17.4,22,32c0,26,4,48.5,4,72
			c0,29.6-2,51-2,72c0,19.2-4,35.6-4,52c0,11-2,27.8-2,40v12c0,15,8.5,12,22,12c30.6,0,55.9-2,80-2c27.9,0,49.5-4,72-4h42
			c7.5,0,21.7,3.1,28,0c2.6-1.3,6-6.6,6-8c0-7.5,3-10-6-10h-78c-17.8,0-32.2-2-48-2c-15.7,0-40-14.7-40-28c0-5.6-2-5.6-2-10
			c0-11.8-2-26.9-2-40c0-13.8-8.5-33.5-2-40c3.8-3.8,26.9-3.6,30-4c3.3-0.4,6.7,0,10,0h94c13.1,0,39.9,0.1,44-4c4.6-4.6-2.7-16-6-16
			c-3.7,0-8.2-3.4-10-4c-7.3-2.4-16.1-2-24-4c-2.3-0.6-7.6,0-10,0h-10c-12.9,0-22.5,2-34,2c-2.4,0-7.9-1.1-10,0c-6.1,3-11.7,2-14,2
			h-38c-6.5,0-7.5-2-10-2c-3.8,0-8-10-12-12l-6-8c-2.1,0-9.3-16.5-10-18c-2-4.1-2-2.5-2-8c0-3.1-2-4.9-2-8c0-2.2-1.4-12.6,0-14
			c2-2,4-10,4-10c3.5-7.1,5.4-9.8,14-12c7.5-1.9,11.9-6,20-6c27.5,0,53.2-2,78-2c27.9,0,87-2,87-2h104c13.7,0,27.8-2,42-2
			c23.2,0,45.9-4,66-4c19.4,0,10.9-2,29-2c16.7,0,34,0.2,34,16c0,14-24.6,14-36,14h-31c-16.1,0-28.6-4-42-4h-70c-3.8,0-16,2.1-16,6
			c0,2-4,10-4,10v34c0,28.4-2,52.1-2,76c0,18.9-2,35-2,52c0,15.7-2,29.4-2,44v22c0,14.4-1.8,9.2,12,0"/>
		<path class="st0" d="M1368.5,52.2c0.2,13.6,2,26.3,2,40v50c0,35.3,0.7,50.8,0,66c-2.6,58.6-2,71.4-2,84c0,11.1,0,25,6,28
			c2.2,1.1,4.4,8,6,8c24.1,0,24-26.4,24-44c0-25,2-47.4,2-70c0-7.1-1.3-15.4,0-18c1.6-3.1,5.3-24.7,2-28c-10.3-10.3,21.9-11.5,24-12
			c2.9-0.7,7,0,10,0c4.9,0,4.3,2.4,8,6c3.9,3.9,6,7.4,6,10c0,2.4-0.6,7.7,0,10c2.9,11.6,2.3,24.8,6,36c0.9,2.6,0,7.2,0,10
			c0,19-4,35-4,52v10c0,24.2-3.7,15.4,10,20c34.3,11.4,40-17.5,40-40s-2.1-49.6,2-66c6.1-24.5,4-48.6,4-66c0-25.8-2-45.3-2-64
			c0-14.7-4-29.2-4-40c0-1.6,1-9,0-10s-8.6,0-10,0h-16c-18.5,0-12,13.7-12,28c0,22.4,6,44.9,6,66c0,5.1-6.4,4-8,4h-34
			c-18.8,0,20-9.7,22-10l28-4l34-4"/>
		<path class="st0" d="M1654.5,31.1c-0.8,24.1,1,48,1,72c0,17.5,1.3,30.3,1,43c-1.5,58.6-5,77.7-5,96c0,24.6-4,37.2-4,50
			c0,3-3.2,21,1,21c12.2,0,7.8-1.5,13-12c5.6-11.2,3-31.9,3-42c0-18.2,2-33.8,2-49c0-15.6,2-29.3,2-43c0-17,2-31,2-45
			c0-15.8,3-31.3,3-45c0-4.6-1.1-21.9,1-24c2.6-2.6-0.4-22,2-22c1.2,0,15-2,15,4c0,4.9,8,11.9,8,19c0,18.2,10.4,40.3,16,57
			c6.4,19.1,16,42.3,16,59s12,30.7,12,46c0,4,1.6,7.3,2,9c2.5,9.8,0.5,25,5,34c3.4,6.9,4,22.5,4,28c0,5.6,0.1,17,4,17
			c7.6,0,18,7.8,20-2c1.2-5.6,1.9-11.3,2-17v-4c0-18.9,1-35.7,1-52c0-22.9-1-43.7-1-64c0-19.8-1-35.3-1-51v-41c0-15.3-3-29.2-3-42
			c0-8.4-2.8-12.6,5-11"/>
		<path class="st0" d="M1791.5,15.1c15.6-5.1,17.1,1.3,21,13c0,13.2,0.4,25.9-3,36c-7.5,22.5-9,50.3-9,71c0,18,2,33.5,2,49
			c0,23.2-1,44.8-1,66v32c0,5.3-2.1,23.3,0,17"/>
		<path class="st0" d="M1828.5,306.1c3.4,4.6,6.7,6.9,13,9c7,0,14.5,3,21,3c9,0,15.9,1,24,1h24c10,0,19.3-1,28-1c9.6,0,19.7-3,26-3
			c10.8,0,16.7-3,25-3c7.2,0,22-7,25-13c5.9-11.8,17-16.7,17-29c0-8.1-0.8-27.4,2-33c4.1-8.2,0-20.6,0-27c0-5.6-2.8-16.8-6-20
			c-5.8-5.8-7.9-9-17-9h-22c-8.8,0-16,3-23,3c-8.6,0-16.3,4-24,4c-8.8,0-15.3,2-22,2c-3.7,0-15.7,5.3-10,11c4.4,4.4,25.7,3.7,31,1
			c6.9-3.4,23.8,0.2,27-3s18.6-2,22-2c2.2,0,7.6-0.4,9,1c6.5,6.5,8,15,8,24v31c0,10.6-0.7,14.7-7,21s-23.2,18-31,18
			c-12.4,0-24.2,2-36,2c-8.6,0-15.2,1-23,1h-20c-7.7,0-13.7,1-20,1c-8.1,0-11-8.1-11-16v-36c0-13.5,4-26,4-38c0-12.2,1-22.7,1-34
			s2-20.4,2-30c0-8,2-14.8,2-22c0-8.7-1-16.2-1-25v-23c0-10.2,2-18.7,2-27c0-10.5,4-18.5,4-26c0-8.5,16.6-14,22-14h39
			c11.6,0,21.6,1,31,1c14,0,73,5.9,73,8c21,21,15,41.4,15,49"/>
		<path class="st0" d="M1580.5,296.1l-4-74c-0.1-2.7,0-5.3,0-8c6.5-26.1-3.9-48.4,2-66c2-6,2-16,2-16c0-14.2,2-27.6,2-42
			c0-16,3.3-27.7,4-38c2-30,2-52,2-52l2,20c0,11.6,4,21.7,4,32c0,9.1,2.5,19.2,4,28v10c0,23.7,2,44,2,64v74c0,22.3-6,40.4-6,58
			C1594.5,288.1,1592.5,292.1,1580.5,296.1z"/>
	</g>
</g>
</svg>
