<?xml version="1.0" encoding="utf-8"?>
<!-- Generator: Adobe Illustrator 23.0.6, SVG Export Plug-In . SVG Version: 6.00 Build 0)  -->
<svg version="1.1" id="Layer_1" xmlns="http://www.w3.org/2000/svg" xmlns:xlink="http://www.w3.org/1999/xlink" x="0px" y="0px"
	 width="315.1px" height="280px" viewBox="0 0 315.1 280" style="enable-background:new 0 0 315.1 280;" xml:space="preserve">
<style type="text/css">
	.st0{fill:none;stroke:#000000;stroke-width:3;stroke-linecap:square;stroke-miterlimit:3;}
</style>
<g>
	<g id="Layer_1-2">
		<path class="st0" d="M177.5,4.7c5.4,3-54.7,8-60.1,5c0,5-115.9-3.4-115.9,1.7C4.1,40.2,115.8,16,115.8,26.5
			c0,20.2-11.7,98.6-11.7,113.9c0,1.7-3,16-2.5,17.6c5.1,15.4,0.8,9,0.8,20.1c0,28.4-1.7,96.9-1.7,99.7l-15,0.8
			c1.5,0-3.2-168.3,5-168.3c2.8,0,7.2-1.7,10-1.7h65.1c25.6,0,48.7-3.3,68.4-3.3c15.9,0,31.9-1.7,45-1.7c4.2,0.1,8.3-1.1,11.8-3.4
			c11.8-7.9,21.7-15.3,21.7-30.2c0-14,4.3-30.9-5-40.2c-3.8-3.8-3.7,1-6.7-5C294.8,12.3,279.4,3,267.6,3c-14.4,0-40-5.1-48.4,3.3
			c-2.3,2.3-8,6.4-8.3,6.7c-8.6,8.6-26.7,30-26.7,43.5c0,3.3-3.3,10-3.3,10c-3.8,15.4-5,33.6-10,48.6c-5,15.2-3.2,29.5-5,40.2
			c-3.9,23.1-1.7,38.6-1.7,51.9v13.4c0,11.7,1.1,29.6,10,38.5c0.9,0.9,2.8,0.6,3.3,1.7c6.3,12.8,30.5,15.1,38.4,15.1h6.7
			c26.4,0,43.3-20,51.7-36.9c9.9-19.9,20-40.7,20-58.6c0-21.3,6.7-39.6,6.7-56.9c0-13.3,6.7-26.7,6.7-38.5v-8.3"/>
	</g>
</g>
</svg>
