<?xml version="1.0" encoding="utf-8"?>
<!-- Generator: Adobe Illustrator 23.0.6, SVG Export Plug-In . SVG Version: 6.00 Build 0)  -->
<svg version="1.1" id="Layer_1" xmlns="http://www.w3.org/2000/svg" xmlns:xlink="http://www.w3.org/1999/xlink" x="0px" y="0px"
	 width="730.4px" height="313.6px" viewBox="0 0 730.4 313.6" style="enable-background:new 0 0 730.4 313.6;" xml:space="preserve"
	>
<style type="text/css">
	.st0{fill:none;stroke:#000000;stroke-width:3;stroke-linecap:square;stroke-miterlimit:3;}
</style>
<g>
	<g id="Layer_1-2">
		<path class="st0" d="M1.5,31.5v16.8c0.3,2.3,1.4,4.4,1.7,6.7c0.2,2.8,0.2,5.6,0,8.4c0,20.5,0.8,36.8,3.3,46.9
			c3.6,14.6,3.3,28.5,3.3,36.8c0,23.1,1.7,38.8,1.7,55.3c0,21.8-1.7,38.5-1.7,55.3c0,11-1.7,20.2-1.7,28.5c0,4.3-1.2,15.5,1.7,18.4
			c16.9,17,48,2.4,55.9-13.4C78.2,266,87,247.6,89.1,230.8c3.4-27.6,3.2-46.1,1.7-60.3c-3.2-28.7-2.8-43.4-5-56.9
			c-3.2-19.3-10-33-10-41.9c0-6.8-1.4-8.3-1.7-10v-8.4c-1.2-3.8-1.8-7.8-1.7-11.7v3.3c0,35.1-3.3,56.8-3.3,78.7
			c0,24.5-1.7,36.1-1.7,46.9v60.3c0,28.4-2.7,50.9,13.3,67s41.5,8.7,49.2-6.7c12.5-25,16.7-40.5,20-56.9c4-20.1,3.3-31.7,3.3-43.6
			c0-26.8-6.1-44.7-11.7-58.6c-6.3-15.8-11.7-32.3-11.7-40.2c0-25.2-1.2-42,3.3-60.3l1.7-6.7C135,41,161,46.6,171.7,46.6
			c21.2,0,36.1,3,45,0c23.3-7.8,39.8-20.1,61.7-20.1c16,0,35.1,26.1,40,38.5c9.5,23.9,1.7,161.1,1.7,179.2v33.5
			c0,3.1,1-11.1,1.7-13.4c2.2-7.7,0.6-136.2-0.8-139c-5.2-10.5-33.6-6.7-42.5-6.7c-1.7,0-8.3,1.7-8.3,1.7
			c-16.2,4.1-30.8,22.5-41.7,33.5c-17.6,17.7-24.4,44.9-30,62c-6,18.1-5,32.5-5,46.9c0,5,14.2,18.4,20,18.4c7.5,0,15.2,5,23.4,5
			c4.4,0,42.3-1.7,46.7-1.7c0,0,26.7-13.4,29.2-34.3l2.5-0.8c0-4.6,7-3,3.3-6.7"/>
		<path class="st0" d="M380.2,18.1c0-49.7-4,99.4-6.7,149.1c-0.5,8.4-1.7,16.5-1.7,25.1c0,14.3-1.7,21.1-1.7,28.5V199
			c0-10.2-1.5-24.1,1.7-33.5c4.1-12.4-0.2-24.8,3.3-31.8c1.4-3.2,2.6-6.6,3.3-10.1c1.5-6,1.8-12.4,3.3-18.4c1.9-7.7,1.7-0.4,1.7-5
			c0-19.8,20.5-34.9,33.4-43.5l5-3.3c18.6-12.4,32.5-25.1,48.4-25.1c30.5,0,35,28,35,50.2v13.4c0,9.2,3.9,28.9,0,36.9
			c-1.7,3.4-1.7,11.7-1.7,11.7c0,15.3-3.3,31.7-3.3,46.9v8.4c0,19.1-3.3,33.7-3.3,48.6c0,8.5,10.8,17.1,16.7,20.1"/>
		<path class="st0" d="M515.3,264.3c7.3,0.5,13.7,0.8,21.7,0.8h53.4c4.3,0,11-0.8,15.8-0.8c6.1,0,15-0.3,15-7.5
			c0-14.6,3.3-29.6,3.3-43.6c0-15.5-1.7-28.4-1.7-41v-28.5c0-16.4-2.5-32-2.5-46.9c0-14.4-1.7-25.6-1.7-36.8V36.5
			c0-4.3-0.8-7.1-0.8-9.2c0-6.2-1.5-2.3-4.2-5c-2.2-2.3-12,0-14.2,0c-5.2,0-10.5,3.4-15.8,3.4c-8.5,0-16.3,1.7-23.4,1.7
			c-5.2,0-18.3,1.7-20-1.7c-2.3-4.7-12.8-16.8-0.8-16.8c8,0,16.7-1.7,25-1.7C586.7,7.2,604,8,621.3,8h38.4C672,8,682.6,7.2,693,7.2
			c7.8,0,13.9-0.8,20.8-0.8c3.4,0,15,5.3,15,8.4c0,7.4-6.4,10-13.3,10h-31.7c-6.6,0-12.4,0.8-18.3,0.8s-11.1-0.8-16.7-0.8
			c-9.7,0-6,6-10,10c-3.2,3.2,0,18.2,0,20.9c0,8.4,0.8,17,0.8,25.1c0,18.8,1.7,36.5,1.7,53.6c0,15.1-4.2,36,0,48.6
			c3.4,10.3,0.8,23.5,0.8,31.8"/>
		<path class="st0" d="M378.5,8c0.1-11.4-18.4-6.4-18.4,3.4c0,12.4-3.3,28.8-3.3,41.9c0,17-1.7,32.5-1.7,46.9
			c0,17.1-1.7,34.5-1.7,48.6v40.2c0,14.8-1.7,26.3-1.7,38.5c0,13.2-3.4,41.9,1.7,46.9"/>
	</g>
</g>
</svg>
