<?xml version="1.0" encoding="utf-8"?>
<!-- Generator: Adobe Illustrator 23.0.4, SVG Export Plug-In . SVG Version: 6.00 Build 0)  -->
<svg version="1.1" id="Layer_1" xmlns="http://www.w3.org/2000/svg" xmlns:xlink="http://www.w3.org/1999/xlink" x="0px" y="0px"
	 width="470px" height="59.2px" viewBox="0 0 470 59.2" style="enable-background:new 0 0 470 59.2;" xml:space="preserve">
<style type="text/css">
	.st0{fill:none;stroke:#000000;stroke-miterlimit:10;}
</style>
<path class="st0" d="M438.5,2.3C415.1-5,392.2,6.8,392.2,30c0,23.7,19.3,36.2,47.9,26.4V28.5l-19.1-0.1"/>
<polyline class="st0" points="342.7,59.4 342.7,1 380.4,59.4 380.4,1 "/>
<line class="st0" x1="322.3" y1="0.7" x2="322.3" y2="59.1"/>
<line class="st0" x1="265.9" y1="27.7" x2="301.7" y2="27.7"/>
<line class="st0" x1="301.7" y1="0.7" x2="301.7" y2="59.1"/>
<line class="st0" x1="265.9" y1="0.9" x2="265.9" y2="59.1"/>
<line class="st0" x1="234" y1="0.7" x2="234" y2="59.1"/>
<line class="st0" x1="212.4" y1="0.7" x2="255.7" y2="0.7"/>
<line class="st0" x1="175" y1="27.7" x2="198" y2="27.7"/>
<polyline class="st0" points="206.6,0.9 175,0.7 175,59.1 207.3,59.1 "/>
<polyline class="st0" points="107.1,59.1 111.5,0.9 132.9,59.1 154.7,0.9 160,59.1 "/>
<ellipse class="st0" cx="69.2" cy="29.5" rx="22.6" ry="29.5"/>
<path class="st0" d="M33.1,2.1C21.5-1,4.2,1.7,4.3,15.3c0.1,19.8,29.2,10.4,28.9,27.4C32.9,56.7,14.8,64,0,56.4"/>
</svg>
