<?xml version="1.0" encoding="utf-8"?>
<!-- Generator: Adobe Illustrator 23.0.6, SVG Export Plug-In . SVG Version: 6.00 Build 0)  -->
<svg version="1.1" id="Layer_1" xmlns="http://www.w3.org/2000/svg" xmlns:xlink="http://www.w3.org/1999/xlink" x="0px" y="0px"
	 width="906.8px" height="447.2px" viewBox="0 0 906.8 447.2" style="enable-background:new 0 0 906.8 447.2;" xml:space="preserve"
	>
<style type="text/css">
	.st0{fill:none;stroke:#ED1C24;stroke-width:20;stroke-miterlimit:10;}
</style>
<g>
	<g id="SAY">
		<path class="st0" d="M165.4,33.4c-11.2-5.1-22-5.7-35.5-3.3c-39.8,7.1-68.2,52.2-68.2,90.7c0,26.1,20.3,55.2,88.1,110.4
			C252.3,314.7,259.5,331,259.5,355c0,55.4-93.6,63.5-139.1,67.6C75.6,426.7,10.6,420.1,10,399c-0.2-8,4.7-15.3,10.9-21.1"/>
		<path class="st0" d="M389.7,433.5C378.4,292.8,419.9,189.3,435,67.2"/>
		<path class="st0" d="M369.3,193.5L629,171.8"/>
		<path class="st0" d="M416.7,22.2c54,70.3,69,106.6,82.1,180.1c12.3,68.7,47.1,126.5,68.1,195.6c1.9,6.3,3.3,21.6-0.9,29"/>
		<path class="st0" d="M712.6,7.1c54.7,54.7,84.4,128.5,133.8,182.1"/>
		<path class="st0" d="M897.8,11.3c-33.4,67.9-51,169.8-65.8,293c-8.2,68.1,1,107.7,15.9,138.6"/>
	</g>
</g>
</svg>
