<?xml version="1.0" encoding="utf-8"?>
<!-- Generator: Adobe Illustrator 23.0.6, SVG Export Plug-In . SVG Version: 6.00 Build 0)  -->
<svg version="1.1" id="Layer_1" xmlns="http://www.w3.org/2000/svg" xmlns:xlink="http://www.w3.org/1999/xlink" x="0px" y="0px"
	 width="3194.5px" height="541.8px" viewBox="0 0 3194.5 541.8" style="enable-background:new 0 0 3194.5 541.8;"
	 xml:space="preserve">
<style type="text/css">
	.st0{fill:none;stroke:#ED1C24;stroke-width:20;stroke-miterlimit:10;}
</style>
<g>
	<g id="Layer_1-2">
		<path class="st0" d="M9.9,366.6c0.8,5.4-1.2,15.9,6.1,22.1c54.5,46.1,133.9,76.7,156,78.6c32.7,2.8,89.4,7.6,106.8-22.1
			c8.4-14.3,4.5-31.1-8.6-67.5c-24.6-68.8-37-103.2-70-158.4c-45.1-75.4-72.9-100-61.4-126.5c9.6-22.2,40.1-30.2,46.7-31.9
			c9.5-2.5,44.3-11.7,62.6,9.8c14.8,17.5,8.4,42.9,7.4,46.7"/>
		<path class="st0" d="M520.8,165.2c-38.6-28.5-56.6-23.2-66-20.4c-46,13.6-56.9,112.8-38.4,188.6c1.1,4.6,33.7,113.5,81.1,113.8
			c41.1,0.2,64-81.4,68.8-95.4c5.8-17.1,23.2-91.7-11-164.6c-9.9-21.1-26.6-38.3-47.5-48.6"/>
		<path class="st0" d="M791.8,457.3c-11.4-174.1-49.2-268.5-48.9-347.5c0.1-16.2,5.4-97.9,22.8-99.8c15.4-1.6,40.8,54.2,75,163.4
			c29.9,95.5,65.2,144.2,93.8,144.6c47.9,0.7,85.9-147.2,97.1-194.2"/>
		<path class="st0" d="M1031.5,115.9c21.6,134.5,50.9,235.4,101.8,323.4"/>
		<path class="st0" d="M1487.7,382.3c-33.3,47.2-54.8,61-85.8,62.9c-41.3,2.5-71.8-56.4-75.8-94.8c-8.6-83.6-4.8-125.3-6.2-211.6"/>
		<path class="st0" d="M1287.1,99.2c84.8,2.4,89.6-11.9,163-12.9c24.4-0.3,52,2.2,71.5,7.2"/>
		<path class="st0" d="M1259.9,271.7c95.3,0,110.2-29.2,173-63.4"/>
		<path class="st0" d="M1505.9,176.2c58.3-72,197.7-51.4,301.5-48.6"/>
		<path class="st0" d="M1703.7,124.8c-15.2,138.3-29.5,279.9-12.8,415.8"/>
		<path class="st0" d="M1927.8,94.5c21.8,141.1,12.9,166.5,14.9,272.8c1,50.4,14,74.1,27.7,94.8"/>
		<path class="st0" d="M2103.6,465.4c-8.1-31.1-18.2-64.6-20.2-101.2c-5.9-106.6,5.7-192.9,5.3-289.9"/>
		<path class="st0" d="M2095.1,219.1c-73.3,20.2-114.1,24.9-190.8,64"/>
		<path class="st0" d="M2332.3,79.1c7.9,121.8-24.3,257.8,28.3,394.5"/>
		<path class="st0" d="M2588.6,432c-102.9-149.5-34-175.3-113.2-323"/>
		<path class="st0" d="M2480.4,75.8c131.3,316,313.6,333.3,347.5,307.1c15.3-11.8-21.3-151.9-61.2-277.1"/>
		<path class="st0" d="M3108.6,90.1c-144.7,8-186.5,76.1-178.9,179.2c4.6,62.8,44,131.3,133.7,133.4c18.9-5.5-9.9-137.1,10-143.7
			c12.8-4.2,132.7-10.1,107.7,192.4"/>
	</g>
</g>
</svg>
