<?xml version="1.0" encoding="utf-8"?>
<!-- Generator: Adobe Illustrator 23.0.6, SVG Export Plug-In . SVG Version: 6.00 Build 0)  -->
<svg version="1.1" id="Layer_1" xmlns="http://www.w3.org/2000/svg" xmlns:xlink="http://www.w3.org/1999/xlink" x="0px" y="0px"
	 width="3243px" height="541.8px" viewBox="0 0 3243 541.8" style="enable-background:new 0 0 3243 541.8;" xml:space="preserve">
<style type="text/css">
	.st0{fill:#ED1C24;}
</style>
<g>
	<g id="SOMETHING">
		<g>
			<path class="st0" d="M19.8,365.1c0.2,1.9,0.3,3.3,0.3,4.6l0,3.3c0,2,0.2,3.6,0.5,4.9c0.3,1.3,0.6,2,1,2.6
				c0.1,0.1,0.2,0.3,0.3,0.4c0.1,0.1,0.1,0.1,0.2,0.2c0.1,0.1,0,0.1,0.3,0.3l2.6,2.1l5.1,4.2c0.9,0.7,1.7,1.4,2.6,2.1l2.7,2l5.3,4
				c0.9,0.7,1.8,1.4,2.7,2l2.7,1.9c14.5,10.3,29.9,19.6,45.7,28c15.8,8.4,32.2,16,48.8,22.4c4.2,1.5,8.3,3.1,12.5,4.5l3.1,1l3.1,0.9
				l3.1,0.9c1,0.3,2.1,0.5,3.1,0.8l3.1,0.7l2.8,0.4l0.7,0.1l0.4,0.1l0.4,0l1.7,0.2l3.4,0.3c4.5,0.4,9,0.8,13.5,1.1
				c9,0.6,17.9,1,26.7,0.8c8.8-0.2,17.5-0.9,25.8-2.8c8.3-1.8,16.1-4.8,22.1-9.6c3-2.4,5.4-5.2,7.3-8.5c1.8-3.2,2.9-6.6,3.2-10.4
				c0.4-3.8,0-7.9-0.7-12.1c-0.7-4.2-1.7-8.5-2.9-12.7c-2.3-8.6-5.2-17.1-8.2-25.7c-6-17.3-11.9-34.5-18.1-51.6
				c-3.1-8.6-6.3-17-9.7-25.5c-3.4-8.4-6.9-16.8-10.6-25c-7.5-16.5-15.8-32.6-24.8-48.4c-9-15.8-18.5-31.4-28.2-46.8l-14.8-23.1
				c-4.9-7.7-9.9-15.4-14.4-23.5c-2.2-4-4.4-8.2-6.2-12.5c-1.8-4.3-3.4-8.9-4-13.7l-0.2-1.8c-0.1-0.6-0.1-1.2-0.1-1.8
				c-0.1-1.2,0-2.4,0.1-3.7c0.2-2.4,0.6-4.9,1.4-7.2c0.7-2.3,1.7-4.5,2.9-6.6c1.2-2.1,2.5-4.1,4-5.9c3-3.7,6.6-6.9,10.4-9.6
				c3.8-2.7,7.9-5,12.1-7c4.2-2,8.6-3.6,13-5c2.2-0.7,4.4-1.3,6.7-1.9c2.2-0.6,4.5-1.1,6.7-1.6c9-1.9,18.3-2.9,27.5-2
				c4.6,0.4,9.2,1.4,13.6,3c2.2,0.8,4.3,1.8,6.3,3c2,1.2,3.9,2.5,5.6,4.1c1.7,1.5,3.4,3.2,4.7,5.1c0.7,0.9,1.4,1.8,2,2.8l1.7,3
				c2.1,4.1,3.5,8.6,4.2,13.1c0.7,4.5,0.9,9.1,0.6,13.7c-0.3,4.6-1.1,9.1-2.3,13.5c1.1-4.4,1.7-9,1.9-13.5c0.2-4.5,0-9.1-0.9-13.6
				c-0.8-4.5-2.3-8.8-4.4-12.8l-1.8-2.9c-0.6-0.9-1.4-1.8-2-2.7c-1.4-1.8-3-3.3-4.7-4.8c-1.7-1.5-3.6-2.7-5.5-3.8
				c-2-1.1-4-2-6.1-2.7c-4.2-1.5-8.7-2.3-13.2-2.6c-9-0.6-18.1,0.5-26.8,2.6c-2.2,0.5-4.4,1.1-6.6,1.7c-2.2,0.6-4.3,1.2-6.5,2
				c-4.3,1.4-8.5,3.1-12.5,5.1c-8,3.9-15.6,9.1-20.9,16.1c-1.3,1.7-2.5,3.5-3.5,5.5c-1,1.9-1.8,3.9-2.4,6c-0.7,2-0.9,4.2-1.1,6.3
				c0,1.1-0.1,2.1,0,3.2c0,0.5,0,1.1,0.1,1.6l0.2,1.6c0.6,4.2,2.2,8.4,3.9,12.5c1.8,4.1,4,8,6.2,11.9c4.6,7.8,9.7,15.3,14.7,22.9
				l15.3,22.7c10.2,15.2,20.1,30.7,29.5,46.4c9.4,15.7,18.2,31.9,26.2,48.5c4,8.3,7.8,16.7,11.4,25.2c3.6,8.5,7,17,10.4,25.5
				c6.7,17.1,13,34.2,19.4,51.4c3.2,8.6,6.3,17.3,9,26.3c1.4,4.5,2.6,9.1,3.5,13.9c0.9,4.8,1.5,9.8,1.1,15.2
				c-0.3,5.3-1.9,10.8-4.5,15.6c-2.6,4.8-6.1,9-10.2,12.4c-4.1,3.4-8.6,6-13.2,8.1c-4.6,2.1-9.4,3.6-14.1,4.7
				c-9.5,2.3-19,3.3-28.5,3.7c-9.4,0.4-18.8,0.2-28.1-0.2c-4.6-0.2-9.3-0.5-13.8-0.9l-3.4-0.2l-1.7-0.1l-0.4,0l-0.5-0.1l-1-0.1
				l-3.9-0.5c-1.2-0.2-2.4-0.5-3.6-0.8c-1.2-0.3-2.4-0.5-3.6-0.8l-3.5-0.9l-3.5-0.9l-3.4-1c-4.5-1.3-8.9-2.9-13.4-4.4
				c-17.6-6.3-34.6-13.8-51.2-22.1C67.2,435,51,425.7,35.4,415.2l-2.9-1.9c-1-0.6-1.9-1.4-2.9-2l-5.7-4.1l-2.9-2.1
				c-1-0.7-1.9-1.4-2.8-2.2l-5.6-4.4l-2.8-2.2c-0.2-0.1-0.6-0.5-0.9-0.8l-1-1c-0.7-0.7-1.3-1.4-1.9-2.2c-2.4-3.1-3.8-6.6-4.6-9.8
				c-0.8-3.2-1-6.1-1.2-8.7l-0.1-3.5c0-1-0.1-1.9-0.2-2.2L19.8,365.1z"/>
		</g>
		<g>
			<path class="st0" d="M514.9,173.2c-6.3-4.7-12.7-9.1-19.3-12.7c-6.6-3.7-13.4-6.5-20.1-7.9c-3.3-0.6-6.5-0.9-9.7-0.7
				c-0.4,0-0.8,0-1.2,0.1l-1.2,0.2c-0.8,0.1-1.6,0.3-2.4,0.4c-0.4,0.1-0.8,0.2-1.3,0.3l-0.6,0.2l-0.7,0.2c-0.4,0.1-1,0.3-1.3,0.4
				l-1.1,0.3c-5.9,2-11.3,6-15.8,11.4c-4.6,5.3-8.3,11.9-11.3,18.8c-3,7-5.4,14.4-7.3,22c-3.7,15.2-5.6,31.1-6.2,47.1
				c-0.6,16,0.1,32,2,47.9c0.9,8,2.2,15.9,3.8,23.7c0.4,2,0.8,3.9,1.3,5.9l0.3,1.3l0.4,1.3l0.8,2.8c1.1,3.8,2.4,7.7,3.7,11.5
				c5.2,15.3,11.3,30.3,18.5,44.6c3.6,7.1,7.6,14.1,12,20.6c4.4,6.5,9.3,12.7,14.9,18c5.6,5.2,12,9.4,18.8,11
				c1.7,0.4,3.5,0.6,5.2,0.7c0.9,0,1.7-0.1,2.6-0.1c0.4,0,0.9,0,1.3-0.1l1.3-0.2c3.4-0.6,6.9-1.8,10-3.6c6.4-3.6,12-9.2,16.9-15.3
				c1.3-1.5,2.4-3.2,3.6-4.7c1.1-1.7,2.3-3.3,3.3-5c2.2-3.3,4.1-6.8,6-10.4c7.6-14.2,13.5-29.4,18.7-44.8l2-5.8
				c0.7-2,1.3-3.8,1.9-5.7c1.2-3.8,2.2-7.7,3-11.7c1.8-7.9,3.1-15.9,4.1-23.9c3.9-32.2,1.9-65.3-7.3-96.6c-2.3-7.8-5.1-15.5-8.3-23
				c-3.1-7.5-7-14.7-11.7-21.3c-9.4-13.3-22.1-24.3-36.7-31.7c14.8,7.1,27.8,17.8,37.7,31c5,6.6,9.1,13.8,12.4,21.3
				c3.4,7.5,6.4,15.2,9,23c10.1,31.4,13,65,9.9,97.9c-0.8,8.2-2,16.4-3.6,24.6c-0.8,4.1-1.7,8.1-2.8,12.2c-0.5,2-1.2,4.1-1.8,6
				l-1.8,5.9c-4.9,15.7-10.5,31.3-18,46.3c-1.9,3.7-3.9,7.4-6.1,11c-1,1.8-2.2,3.6-3.4,5.4c-1.2,1.7-2.4,3.5-3.7,5.2
				c-5.1,6.8-11.1,13.2-18.9,17.9c-3.8,2.4-8.2,4.1-12.8,5l-1.7,0.3c-0.6,0.1-1.2,0.1-1.8,0.2c-1.2,0.1-2.3,0.2-3.5,0.2
				c-2.4,0-4.7-0.3-7-0.7c-4.6-1-8.9-2.7-12.8-5c-3.9-2.2-7.5-4.9-10.8-7.8c-6.6-5.8-12-12.4-17-19.3c-4.9-6.9-9.3-14.1-13.3-21.5
				c-8-14.7-14.6-30-20.4-45.6c-1.4-3.9-2.8-7.8-4.1-11.8l-1-3l-0.5-1.6l-0.4-1.7c-0.5-2-1-4.1-1.5-6.1c-1.9-8.2-3.4-16.4-4.6-24.7
				c-2.4-16.6-3.5-33.3-3.3-50.1c0.2-16.8,1.7-33.7,5.4-50.4c1.8-8.4,4.2-16.7,7.5-24.8c3.3-8.1,7.5-16.2,13.4-23.5
				c2.9-3.6,6.3-7.1,10.2-10.1c3.9-3,8.3-5.5,13.1-7.2l1.8-0.6c0.6-0.2,1.1-0.3,1.6-0.5l0.8-0.2l0.9-0.2c0.6-0.2,1.1-0.3,1.7-0.5
				c1.2-0.3,2.4-0.6,3.6-0.8l1.9-0.3c0.6-0.1,1.3-0.1,1.9-0.2c5-0.5,10-0.2,14.8,0.6c9.4,1.8,17.9,5.2,25.8,9.3
				c7.8,4.1,15.1,8.8,22.1,13.7L514.9,173.2z"/>
		</g>
		<g>
			<path class="st0" d="M781.8,458c-2.4-43.2-6.9-86.2-13.2-129.1c-3.1-21.4-6.8-42.8-10.7-64.2c-3.9-21.4-8.1-42.7-11.9-64.3
				c-3.8-21.5-7.3-43.3-8.9-65.4l-0.6-8.3c-0.1-1.4-0.1-2.8-0.1-4.2l-0.1-4.2l-0.1-8.4c0-2.9,0.2-5.7,0.3-8.4c0.6-11.1,1.7-22,3-33
				c1.4-11,3.1-21.9,5.7-32.8c1.3-5.5,2.9-10.9,5.2-16.5c1.2-2.8,2.5-5.5,4.6-8.4c1.1-1.4,2.3-2.8,4.1-4.1c0.5-0.3,1-0.6,1.5-0.9
				c0.6-0.3,1.1-0.6,1.7-0.8c1.2-0.4,2.6-0.7,3.9-0.7c2.6,0,4.8,0.8,6.5,1.7c1.8,0.9,3.2,2,4.4,3.1c2.5,2.2,4.4,4.6,6.2,6.9
				c3.5,4.7,6.4,9.6,9,14.6c5.3,9.9,9.7,20,13.9,30.1c8.3,20.3,15.5,41,22.4,61.7c3.4,10.4,6.8,20.8,10,31.2
				c3.3,10.4,6.3,20.9,9.7,31.2c6.6,20.6,14.2,41,23.3,60.6c4.5,9.8,9.5,19.4,15.1,28.6c5.6,9.2,11.8,18,19.1,25.7
				c3.7,3.8,7.6,7.4,12,10.2c2.2,1.5,4.5,2.6,6.8,3.7c2.4,1,4.8,1.7,7.3,2c5,0.7,10-0.3,14.5-2.7c2.3-1.2,4.4-2.6,6.5-4.2
				c2-1.6,4-3.4,5.8-5.3c7.4-7.7,13.3-16.8,18.7-26.2c5.3-9.4,10-19.2,14.3-29.2c8.6-19.9,15.8-40.5,22.3-61.3
				c6.5-20.8,12.3-41.8,17.5-62.9c-4.8,21.2-10.2,42.3-16.3,63.3c-6.1,20.9-13,41.6-21.2,61.9c-4.2,10.1-8.7,20.1-13.9,29.7
				c-5.2,9.6-11.1,19-18.7,27.2c-1.9,2-3.9,4-6.1,5.8c-2.2,1.8-4.5,3.4-7.1,4.8c-2.5,1.4-5.3,2.4-8.2,3.1c-2.9,0.6-5.9,0.7-8.8,0.4
				c-2.9-0.4-5.7-1.1-8.4-2.2c-2.7-1.1-5.2-2.4-7.6-3.9c-4.8-3-9.1-6.7-13-10.7c-7.8-8-14.4-16.9-20.3-26.2
				c-5.9-9.3-11.1-19-15.9-28.9c-9.6-19.7-17.6-40.2-24.7-60.9c-3.6-10.4-6.8-20.7-10.3-31c-3.4-10.3-6.9-20.6-10.5-30.8
				c-7.2-20.5-14.8-40.8-23.4-60.6c-4.3-9.9-8.8-19.7-14-28.9c-2.6-4.6-5.3-9.1-8.4-13c-1.5-2-3.1-3.8-4.8-5.2
				c-0.8-0.7-1.6-1.2-2.3-1.6c-0.7-0.3-1.1-0.4-1.3-0.4c0,0-0.1,0-0.1,0c0,0,0,0-0.1,0c0,0-0.1,0.1-0.2,0.1
				c-0.1,0.1-0.2,0.1-0.3,0.2c-0.4,0.3-1,0.9-1.6,1.7c-1.1,1.6-2.2,3.8-3.1,6c-1.8,4.6-3.2,9.6-4.3,14.8
				c-2.3,10.3-3.7,20.9-4.9,31.6c-1.1,10.7-1.9,21.4-2.3,32.1c-0.1,2.7-0.2,5.4-0.2,7.9l0.3,8l0.1,4c0,1.3,0.1,2.6,0.2,4l0.7,8
				c1.9,21.3,5.8,42.5,10,63.8c4.2,21.3,8.8,42.6,13.1,64c4.3,21.4,8.4,42.9,12,64.5c7.2,43.2,12.6,86.8,15.9,130.5L781.8,458z"/>
		</g>
		<g>
			<path class="st0" d="M1041.4,114.3c3.7,28.1,7.9,56,13,83.8c5.1,27.8,11,55.5,18.1,82.8c7.2,27.4,15.6,54.4,25.6,80.9
				c10,26.5,21.7,52.4,35.2,77.4c-14.9-24.2-28.2-49.5-39.8-75.5c-11.7-26-21.8-52.8-30.6-80c-8.8-27.2-16.4-54.8-23.2-82.5
				c-6.8-27.8-12.7-55.7-18-83.8L1041.4,114.3z"/>
		</g>
		<g>
			<path class="st0" d="M1495.9,388.1c-5.8,7.7-11.7,15.4-18.1,22.8c-6.5,7.4-13.4,14.6-21.2,21c-3.9,3.3-8.2,6.2-12.6,8.9
				c-1.1,0.7-2.3,1.3-3.4,1.9c-1.2,0.6-2.3,1.3-3.5,1.8c-2.4,1-4.8,2.2-7.3,3c-1.2,0.4-2.5,0.9-3.7,1.3l-3.8,1
				c-0.6,0.2-1.3,0.3-1.9,0.5l-1.9,0.4l-3.8,0.7l-3.8,0.5c-1.3,0.2-2.5,0.3-3.8,0.4l-3.8,0.3c-0.6,0.1-1.3,0.1-2,0.1l-2.1,0
				c-5.6-0.1-11.1-1.3-16.2-3.2c-5.1-1.9-9.8-4.5-14.1-7.5c-4.3-3-8.1-6.5-11.6-10.2c-3.5-3.7-6.7-7.6-9.6-11.6
				c-5.8-8.1-10.5-16.8-14.4-25.8c-3.9-9-7-18.3-9.1-27.9c-1.1-4.8-1.9-9.7-2.3-14.6c-0.4-4.8-0.7-9.5-1.1-14.2
				c-0.3-4.7-0.6-9.5-0.9-14.2c-0.3-4.7-0.5-9.5-0.7-14.2c-0.9-19-1.1-38-0.9-56.9c0.2-19,0.7-37.9,1.1-56.8
				c0.4-18.9,0.8-37.8,0.9-56.7c0.7,18.9,1.2,37.8,1.6,56.8c0.4,18.9,0.7,37.8,1.4,56.7c0.7,18.9,1.7,37.7,3.4,56.5
				c0.5,4.7,0.8,9.4,1.3,14.1c0.5,4.7,1,9.4,1.5,14.1c0.6,4.7,1.1,9.4,1.7,14c0.6,4.5,1.6,8.9,2.7,13.3c2.4,8.8,5.6,17.4,9.6,25.6
				c4,8.2,8.7,16,14.2,23.1c2.8,3.5,5.7,6.8,8.9,9.9c3.1,3,6.5,5.8,10.1,8c7.1,4.6,14.9,7.2,22.7,7l1.5-0.1c0.5,0,1,0,1.5-0.1
				l3.3-0.4c1.1-0.1,2.2-0.3,3.2-0.5l3.2-0.5l3.1-0.8l1.6-0.4c0.5-0.1,1-0.3,1.5-0.5l3-1c1-0.4,1.9-0.8,2.9-1.2
				c7.8-3.1,14.8-8,21.3-13.9c6.5-5.8,12.5-12.6,18.2-19.7c5.7-7.1,11-14.7,16.2-22.4L1495.9,388.1z"/>
		</g>
		<g>
			<path class="st0" d="M1287.4,89.2c19.4,1.4,38.7,2,57.9,1c9.6-0.5,19.2-1.5,28.9-2.7c9.7-1.2,19.6-2.4,29.5-3.2
				c2.5-0.2,5-0.3,7.5-0.5l3.7-0.2l3.7-0.1c2.5-0.1,5-0.2,7.5-0.3l7.4-0.1c9.9,0,19.8,0.1,29.7,0.8c9.9,0.7,19.7,1.8,29.5,3.3
				c9.7,1.6,19.4,3.5,28.9,6.3c-9.6-2-19.4-3.1-29.2-3.8c-9.8-0.7-19.6-0.9-29.3-0.8c-9.8,0.1-19.5,0.8-29.2,1.7l-7.3,0.7
				c-2.4,0.3-4.8,0.6-7.2,0.9l-3.6,0.4l-3.6,0.5c-2.4,0.4-4.8,0.7-7.2,1.1c-9.6,1.6-19.1,3.6-28.7,5.6c-9.7,2-19.5,3.9-29.5,5.3
				c-19.9,2.8-40,3.9-59.9,4.1L1287.4,89.2z"/>
		</g>
		<g>
			<path class="st0" d="M1259.9,261.7c15.3,0.7,30.6,0.9,45.8-0.5c15.1-1.3,30-4.4,44.2-9.9c14.3-5.4,27.9-13,41.5-20.7
				c13.6-7.8,27.4-15.5,41.5-22.3c-13.4,8.2-26.1,17.3-38.8,26.5c-12.7,9.2-25.7,18.4-40.2,25.7c-0.9,0.5-1.8,1-2.7,1.4l-2.8,1.2
				l-5.6,2.5c-0.9,0.4-1.9,0.8-2.8,1.1l-2.9,1.1l-5.7,2.1l-11.7,3.5l-11.9,2.7c-15.9,3.2-32,4.7-48,5.7V261.7z"/>
		</g>
		<g>
			<path class="st0" d="M1498.1,169.9c9.4-10.9,20.8-19.9,33.1-26.7c12.2-6.9,25.3-11.8,38.4-15.4c13.2-3.5,26.5-5.8,39.9-7.2
				c13.3-1.4,26.7-2.1,39.9-2.2c26.6-0.3,52.9,1.3,79.2,3.2c26.3,2,52.5,4.5,78.7,6c-26.3,0.1-52.7-0.7-79-1
				c-26.3-0.3-52.6-0.2-78.6,1.8c-13,1-25.9,2.4-38.7,4.6c-12.7,2.2-25.2,5.1-37.3,9.2c-12,4.1-23.5,9.3-33.7,16
				c-10.3,6.7-19.3,14.9-26.6,24.3L1498.1,169.9z"/>
		</g>
		<g>
			<path class="st0" d="M1713.6,125.9c-9.2,68.9-18.2,137.6-23.2,206.8c-2.5,34.6-4.1,69.2-4.2,103.9c-0.1,34.7,1.3,69.4,4.7,104
				c-5.1-34.4-8.1-69.1-9.7-103.9c-1.6-34.8-1.7-69.7-0.8-104.5c1.8-69.7,7.4-139.2,13.4-208.5L1713.6,125.9z"/>
		</g>
		<g>
			<path class="st0" d="M1937.7,93c3.9,31.1,7.4,62.2,9.3,93.6l0.7,11.8l0.5,11.8c0.2,3.9,0.2,7.9,0.3,11.8
				c0.1,3.9,0.2,7.9,0.2,11.8c0.1,15.7-0.3,31.4-0.8,47c-0.5,15.6-1.2,31.2-1.6,46.7c-0.4,15.5-0.8,31.2-0.7,46.6
				c0,1.9,0.1,3.9,0.2,5.8c0.1,1.9,0.1,3.9,0.3,5.8l0.4,5.8c0.1,1.9,0.4,3.8,0.6,5.8c0.9,7.7,2.3,15.3,4.3,22.7
				c2,7.5,4.6,14.8,7.9,21.8c3.3,7,7.2,13.8,11.3,20.4c-4.5-6.4-8.7-12.9-12.4-19.9c-3.7-6.9-6.8-14.2-9.2-21.6
				c-2.4-7.5-4.2-15.2-5.6-22.9c-0.3-1.9-0.7-3.9-0.9-5.8l-0.8-5.9c-0.2-2-0.4-3.9-0.6-5.9c-0.2-2-0.4-3.9-0.5-5.9
				c-1-15.7-1.4-31.2-1.8-46.9c-0.4-15.6-0.6-31.2-0.9-46.8c-0.3-15.6-0.7-31.1-1.6-46.5c-0.2-3.9-0.5-7.7-0.8-11.6
				c-0.3-3.9-0.5-7.7-0.9-11.6l-1.1-11.5l-1.3-11.5c-3.5-30.7-8.6-61.3-14.1-91.9L1937.7,93z"/>
		</g>
		<g>
			<path class="st0" d="M2093.9,467.9c-3.7-15.8-7.8-31.9-11-48.2c-3.3-16.3-5.8-33-6.6-49.9c-0.1-2.1-0.2-4.2-0.2-6.3l-0.1-6.2
				l-0.3-12.4l0-12.4c0-4.1,0-8.2,0.1-12.4l0.2-12.4c0.1-4.1,0.2-8.2,0.3-12.3c0.2-8.2,0.6-16.5,0.9-24.7
				c1.5-32.9,4.1-65.6,6.4-98.3c2.4-32.7,4.4-65.4,5.2-98.2c0.9,32.8,0.5,65.6-0.2,98.4c-0.7,32.8-1.6,65.6-1.4,98.3
				c0.1,8.2,0.1,16.3,0.3,24.5c0.1,4.1,0.2,8.2,0.3,12.2l0.5,12.2c0.1,4.1,0.3,8.1,0.6,12.2l0.7,12.2l0.9,12.2l0.4,6.1
				c0.1,2,0.4,4,0.5,6c1.6,15.8,4.8,31.5,8.7,47.2c4,15.6,8.7,31.2,13.3,47.1L2093.9,467.9z"/>
		</g>
		<g>
			<path class="st0" d="M2097.8,228.7c-16.6,3.7-33.1,7-49.6,10.4c-16.5,3.3-32.9,6.7-49.1,10.7c-16.2,4-32.2,8.8-48,14.4
				c-15.8,5.6-31.4,12-46.7,18.8c14.6-8.3,29.5-16.3,44.8-23.5c15.3-7.2,31-13.7,47-19.4c16-5.7,32.2-10.8,48.3-15.7
				c16.1-4.9,32.1-9.9,48-15.1L2097.8,228.7z"/>
		</g>
		<g>
			<path class="st0" d="M2342.3,78.5c1.3,33.8-0.3,67.2-2.3,100.4c-2,33.2-4.4,66.2-5.3,99.2c-0.9,33-0.2,66.1,3.8,98.9
				c3.9,32.8,11,65.3,22.2,96.6c-12.7-30.7-21.5-63-27.1-95.9c-5.6-32.9-8-66.3-8.8-99.6c-0.8-33.3-0.1-66.6,0.3-99.8
				c0.3-33.1,0.3-66.1-2.6-98.6L2342.3,78.5z"/>
		</g>
		<g>
			<path class="st0" d="M2580.4,437.7l-5.9-9.3l-2.9-4.6l-2.8-4.7l-5.6-9.5l-5.3-9.6c-7-12.9-13.4-26.2-19-39.9
				c-5.5-13.7-10.1-27.8-13.4-42.2c-0.4-1.8-0.9-3.6-1.2-5.4l-1.1-5.4l-0.5-2.7l-0.4-2.7l-0.9-5.4c-1.1-7.2-2-14.5-2.7-21.7
				c-1.5-14.5-2.6-28.8-4.4-43c-1.8-14.2-4.3-28.3-7.9-42.1c-3.6-13.9-8.1-27.5-13.3-40.9c-5.3-13.4-11.3-26.5-17.6-39.4
				c7.1,12.6,13.9,25.3,19.9,38.4c6,13.1,11.4,26.7,15.8,40.5c4.5,13.8,7.9,28,10.5,42.3c2.7,14.3,4.6,28.7,6.9,42.8
				c1.1,7.1,2.4,14.1,3.9,21l1.2,5.2l0.6,2.6l0.7,2.6l1.3,5.1c0.4,1.7,1,3.4,1.5,5.1c3.9,13.5,9,26.7,15,39.4
				c6,12.7,12.9,25.1,20.3,37.1l5.7,9l5.9,8.8l3,4.4l3.1,4.3l6.2,8.7L2580.4,437.7z"/>
		</g>
		<g>
			<path class="st0" d="M2489.6,72c11.2,27.6,23.4,54.9,36.9,81.4c13.7,26.4,28.9,52.1,46.1,76.3l3.2,4.6l3.4,4.4l6.7,8.9
				c2.2,3,4.6,5.8,7,8.7l7.1,8.6c0.6,0.7,1.2,1.4,1.8,2.1l1.9,2.1l3.7,4.1l3.7,4.1l1.9,2.1c0.6,0.7,1.3,1.3,2,2
				c5.3,5.2,10.4,10.6,16,15.4c10.8,10.1,22.6,19,34.8,27.2l4.6,3c1.6,1,3.1,2,4.7,2.9l9.6,5.4l9.9,4.9c1.6,0.9,3.4,1.5,5,2.2
				l5.1,2.1c13.6,5.4,27.9,9.3,42.4,11l5.5,0.5l2.7,0.2c0.9,0,1.8,0.1,2.7,0.1l5.5,0.1c1.8,0,3.6-0.1,5.5-0.2
				c7.3-0.4,14.5-1.2,21.5-3.2l1.3-0.3c0.4-0.1,0.9-0.3,1.3-0.4l2.6-0.8c1.7-0.5,3.3-1.2,5-1.9c1.7-0.6,3.2-1.5,4.7-2.3
				c0.8-0.4,1.5-0.9,2.2-1.3l1.1-0.7l0.5-0.4c0.1-0.1,0.2-0.1,0.2-0.2l0.1-0.1c0.7-0.5,1.4-1.8,2-3.3c0.5-1.5,0.9-3.2,1.2-4.9
				c0.6-3.5,0.8-7.1,0.8-10.8c0.1-7.3-0.5-14.8-1.2-22.2c-0.8-7.4-1.8-14.8-2.9-22.3c-2.3-14.8-5.1-29.6-8.3-44.3
				c-3.1-14.7-6.6-29.3-10.2-43.9c-7.3-29.2-15.5-58.2-24.2-87c9.5,28.6,18.5,57.3,26.6,86.4c4.1,14.5,7.9,29.1,11.5,43.7
				c3.6,14.7,6.8,29.4,9.5,44.3c1.4,7.4,2.6,14.9,3.6,22.4c1,7.5,1.7,15.1,1.9,22.8c0.1,3.9,0,7.8-0.6,11.8c-0.3,2-0.7,4-1.3,6.1
				c-0.2,0.5-0.4,1-0.6,1.6c-0.2,0.5-0.5,1.1-0.8,1.6c-0.6,1.1-1.3,2.2-2.4,3.1l-0.4,0.4c-0.1,0.1-0.2,0.2-0.3,0.2l-0.6,0.4
				l-1.3,0.9c-0.8,0.6-1.7,1.2-2.6,1.7c-1.8,0.9-3.5,2-5.3,2.8c-1.8,0.8-3.6,1.7-5.5,2.3l-2.8,1c-0.5,0.2-0.9,0.3-1.4,0.5l-1.4,0.4
				c-7.5,2.3-15.3,3.4-23,4c-1.9,0.1-3.9,0.3-5.8,0.4l-5.8,0c-1,0-1.9,0-2.9,0l-2.9-0.2l-5.8-0.4c-15.4-1.4-30.6-5.1-45.1-10.4
				l-5.4-2.1c-1.8-0.7-3.6-1.3-5.4-2.2l-10.5-4.8l-10.2-5.4c-1.7-0.9-3.3-1.9-5-2.9l-4.9-3c-13-8.1-25.5-17.2-37.1-27.3
				c-6-4.9-11.4-10.3-17-15.5c-0.7-0.7-1.4-1.3-2.1-2l-2-2.1l-4-4.1l-4-4.1l-2-2.1c-0.7-0.7-1.3-1.4-1.9-2.1l-7.6-8.6
				c-2.5-2.9-5.1-5.7-7.4-8.7l-7.2-8.9l-3.6-4.5l-3.4-4.6c-18.3-24.4-34.6-50.3-49.4-76.9c-14.6-26.7-27.8-54.2-40-82L2489.6,72z"/>
		</g>
		<g>
			<path class="st0" d="M3157.6,102.3c-19.3,1-38.6,3.2-57.4,7.2l-3.5,0.7c-1.2,0.3-2.3,0.6-3.5,0.8l-7,1.7
				c-4.6,1.3-9.3,2.5-13.8,4.1c-4.6,1.4-9,3.1-13.5,4.8c-4.4,1.8-8.8,3.6-13.1,5.7c-8.6,4-17,8.6-24.8,13.9
				c-7.8,5.3-15.3,11.1-22,17.6c-6.7,6.6-12.8,13.7-18.2,21.4l-3.9,5.9c-1.2,2-2.3,4.1-3.5,6.1c-1.2,2-2.2,4.2-3.2,6.3l-1.5,3.2
				c-0.5,1.1-0.9,2.2-1.4,3.3c-7.5,17.3-11.2,36.3-12.4,55.4l-0.2,7.2l-0.1,3.6l0.1,3.6l0.1,7.3c0,1.2,0.1,2.4,0.1,3.6l0.1,1.8
				l0.1,1.7c0.3,4.7,1,9.3,2,13.8c1,4.5,2.3,9,4,13.3c3.4,8.7,8,16.8,13.8,24.2c5.8,7.4,12.6,14.1,20,20
				c15,11.8,32.4,20.7,50.6,27.4c9.1,3.3,18.5,6.1,27.9,8.3c9.5,2.2,19.1,3.9,28.6,4.6c2.4,0.2,4.7,0.3,6.9,0.2l0.8-0.1
				c0.2,0,0.4-0.1,0.7-0.1c0.2,0,0.3-0.1,0.4-0.1c0,0,0,0,0,0c0.1,0,0.5-0.4,0.9-1l0.2-0.2l0.1-0.3c0.1-0.2,0.2-0.4,0.3-0.6
				c0.2-0.5,0.4-0.9,0.5-1.4c0.2-0.5,0.3-1,0.4-1.5c0.1-0.5,0.2-1.1,0.4-1.6c0.4-2.2,0.7-4.6,0.9-6.9c0.7-9.5,0.4-19.4,0-29.2
				c-0.8-19.7-2.5-39.5-2.8-59.5c-0.1-5,0-10,0.2-15.1c0.3-5.1,0.7-10.1,2.2-15.4c0.2-0.7,0.4-1.3,0.7-2c0.2-0.7,0.5-1.3,0.9-2
				c0.7-1.3,1.5-2.7,2.9-3.8c0.3-0.3,0.7-0.5,1.1-0.8c0.4-0.2,0.9-0.4,1.3-0.6c0.2-0.1,0.4-0.2,0.6-0.2l0.5-0.1
				c0.4-0.1,0.7-0.2,1.1-0.3l2-0.3c0.7-0.1,1.3-0.1,2-0.2c5.2-0.5,10.3-0.3,15.4,0.2c20.3,2.1,39.7,11.1,54.2,25.4
				c7.3,7.1,13.2,15.3,18,24.2c1.3,2.1,2.3,4.5,3.4,6.7l1.6,3.4c0.5,1.1,0.9,2.3,1.4,3.5l1.4,3.5c0.4,1.2,1,2.3,1.3,3.5l2.2,7.2
				l0.6,1.8c0.2,0.6,0.3,1.2,0.4,1.8l0.9,3.6l0.9,3.6c0.3,1.2,0.6,2.4,0.8,3.7l1.3,7.4c0.2,1.2,0.5,2.4,0.6,3.7l0.4,3.7l0.9,7.4
				c0.2,1.2,0.2,2.5,0.3,3.7l0.2,3.7l0.5,7.4l0.1,7.5c0.2,19.9-1.3,39.7-3.9,59.4c2.1-19.7,3.3-39.5,2.6-59.3l-0.3-7.4l-0.6-7.4
				l-0.3-3.7c-0.1-1.2-0.2-2.5-0.4-3.7l-1-7.3l-0.5-3.7c-0.2-1.2-0.5-2.4-0.7-3.6l-1.4-7.3c-0.2-1.2-0.5-2.4-0.8-3.6l-0.9-3.6
				l-0.9-3.6c-0.2-0.6-0.3-1.2-0.5-1.8l-0.6-1.8l-2.3-7c-0.3-1.2-0.9-2.3-1.3-3.4l-1.4-3.4c-0.5-1.1-0.9-2.3-1.4-3.4l-1.6-3.3
				c-1.1-2.2-2.1-4.4-3.4-6.5c-4.8-8.5-10.8-16.4-17.9-23c-14.2-13.3-32.8-21.5-52.1-23.1c-4.8-0.4-9.6-0.5-14.3,0.1
				c-0.6,0.1-1.2,0.1-1.7,0.2l-1.7,0.3c-0.3,0.1-0.5,0.1-0.7,0.2l-0.4,0.1c-0.1,0-0.2,0.1-0.3,0.1c-0.1,0.1-0.3,0.1-0.4,0.2
				c-0.1,0.1-0.3,0.2-0.4,0.3c-1.1,1-2,3-2.6,5.2c-1.2,4.4-1.5,9.2-1.7,14.1c-0.2,4.9-0.1,9.8,0.1,14.7c0.7,19.7,2.8,39.4,4.1,59.3
				c0.6,10,1.1,19.9,0.6,30.2c-0.2,2.6-0.4,5.2-0.8,7.8c-0.1,0.7-0.2,1.3-0.4,2c-0.1,0.7-0.3,1.4-0.5,2.1c-0.4,1.4-0.9,2.8-1.7,4.3
				c-0.4,0.7-0.9,1.5-1.5,2.3c-0.4,0.4-0.7,0.8-1.1,1.1c-0.4,0.3-0.9,0.7-1.4,1c-0.5,0.3-1.1,0.5-1.7,0.7c-0.5,0.1-1,0.3-1.4,0.3
				c-0.4,0.1-0.8,0.1-1.2,0.2l-1.1,0.1c-2.8,0.2-5.4,0.1-8,0c-10.3-0.6-20.2-2.2-30.1-4.2c-9.9-2.1-19.6-4.8-29.2-8
				c-9.6-3.3-19-7.1-28.1-11.7c-9.1-4.6-17.9-9.9-26.1-16.2c-8.2-6.2-15.8-13.4-22.4-21.5c-6.6-8.1-12.1-17.2-16.1-27
				c-2-4.9-3.6-9.9-4.9-15c-1.3-5.1-2.1-10.3-2.6-15.6l-0.2-2l-0.1-1.9c-0.1-1.3-0.2-2.6-0.2-3.8l-0.3-7.6l-0.1-3.8l0-3.8l0.1-7.7
				c0.9-20.4,4.5-41.1,12.3-60.4c0.5-1.2,0.9-2.4,1.4-3.6l1.6-3.5c1.1-2.4,2.1-4.8,3.4-7c1.3-2.3,2.5-4.6,3.8-6.9l4.2-6.6
				c5.8-8.7,12.4-16.8,19.7-24.3c7.3-7.4,15.4-14,23.9-20c8.5-6,17.5-11.2,26.7-15.7c4.6-2.4,9.3-4.4,14.1-6.4
				c4.8-1.9,9.5-3.8,14.4-5.4c4.8-1.8,9.7-3.2,14.6-4.7c2.5-0.7,4.9-1.3,7.4-2c1.2-0.3,2.5-0.7,3.7-1l3.7-0.9
				c19.9-4.7,40.1-7.4,60.4-8.9L3157.6,102.3z"/>
		</g>
	</g>
</g>
</svg>
