<?xml version="1.0" encoding="utf-8"?>
<!-- Generator: Adobe Illustrator 23.0.6, SVG Export Plug-In . SVG Version: 6.00 Build 0)  -->
<svg version="1.1" id="Layer_1" xmlns="http://www.w3.org/2000/svg" xmlns:xlink="http://www.w3.org/1999/xlink" x="0px" y="0px"
	 width="1721px" height="561.5px" viewBox="0 0 1721 561.5" style="enable-background:new 0 0 1721 561.5;" xml:space="preserve">
<style type="text/css">
	.st0{fill:none;stroke:#ED1C24;stroke-width:20;stroke-miterlimit:10;}
</style>
<g>
	<g id="WANT">
		<path class="st0" d="M9.6,81.3C27.1,146,53.7,200.1,70.8,353.2c16.6,148.6,58.6,200.8,66.8,198.3c35.6-10.7-9.2-325.9,38.5-336.5
			c14.5-3.2,36.2,17.4,92.9,120.1c36.2,65.7,80.4,108.8,99.7,98.6c26.7-14.1,6.8-228.9,45.3-327.4"/>
		<path class="st0" d="M613.7,495.8c-9.2-85.7,10.2-256.2,50.1-390.3"/>
		<path class="st0" d="M666.4,58.2c18.7,61.5,32,124.6,39.6,188.5c8.6,71.9,14,146.8,51.4,208.3"/>
		<path class="st0" d="M564.9,294.1c126.5-63.3,153.1-46.7,233.3-56.7"/>
		<path class="st0" d="M987.9,98.2l74.7,387.8"/>
		<path class="st0" d="M983.9,69.6c113.6,130.3,123.2,281.3,224.9,289.3c63.9,5,66-200.3,53.2-263.8"/>
		<path class="st0" d="M1356.9,115.3c150.2-76.8,209.4-74,362-105.5"/>
		<path class="st0" d="M1559.4,520.3c-46.1-152.3-66.5-301.4-66.5-462.4"/>
	</g>
</g>
</svg>
